<?xml version="1.0" encoding="utf-8"?>
<!-- Generator: Adobe Illustrator 26.0.3, SVG Export Plug-In . SVG Version: 6.00 Build 0)  -->
<svg version="1.1" id="Layer_1" xmlns="http://www.w3.org/2000/svg" xmlns:xlink="http://www.w3.org/1999/xlink" x="0px" y="0px"
	 viewBox="0 0 595.3 841.9" style="enable-background:new 0 0 595.3 841.9;" xml:space="preserve">
<style type="text/css">
	.st0{display:none;fill:#284F9E;}
	.st1{fill:#20386C;}
	.st2{fill:#1F386B;stroke:#FFFFFF;stroke-miterlimit:10;}
	.st3{fill:#FFFFFF;}
	.st4{fill:#FFFFFF;stroke:#FFFFFF;stroke-miterlimit:10;}
	.st5{display:none;fill:none;stroke:#010202;stroke-miterlimit:10;}
	.st6{fill:#2C61AB;}
	.st7{fill:none;stroke:#FFFFFF;stroke-width:0.5;stroke-miterlimit:10;}
	.st8{display:none;}
	.st9{fill:none;stroke:#DADADA;stroke-miterlimit:10;}
	.st10{fill:#BA1C1C;}
	.st11{fill:#28509D;}
	.st12{fill:#E30616;}
	.st13{fill:#AA1816;}
	.st14{fill:#AA1917;}
</style>
<path class="st0" d="M905.8,720.9L905.8,720.9c-122.7,0-222.2-99.5-222.2-222.2V366.9c0-122.7,99.5-222.2,222.2-222.2h0
	c122.7,0,222.2,99.5,222.2,222.2v131.8C1128,621.4,1028.5,720.9,905.8,720.9z"/>
<g>
	<path class="st1" d="M296.4,685.3c-57.2,0-111-22.3-151.5-62.7c-40.5-40.5-62.7-94.2-62.7-151.5V339.3c0-57.2,22.3-111,62.7-151.5
		c40.5-40.5,94.2-62.7,151.5-62.7s111,22.3,151.5,62.7s62.7,94.2,62.7,151.5v131.8c0,57.2-22.3,111-62.7,151.5
		S353.6,685.3,296.4,685.3z"/>
	<path class="st2" d="M296.4,682.3c-56.4,0-109.4-22-149.3-61.9c-39.9-39.9-61.9-92.9-61.9-149.3V339.3c0-56.4,22-109.4,61.9-149.3
		c39.9-39.9,92.9-61.9,149.3-61.9c56.4,0,109.4,22,149.3,61.9c39.9,39.9,61.9,92.9,61.9,149.3v131.8c0,56.4-22,109.4-61.9,149.3
		S352.8,682.3,296.4,682.3z"/>
	<path class="st3" d="M296.4,685.5c-57.3,0-111.1-22.3-151.6-62.8C104.3,582.2,82,528.4,82,471.1V339.3
		c0-57.3,22.3-111.1,62.8-151.6c40.5-40.5,94.4-62.8,151.6-62.8c57.3,0,111.1,22.3,151.6,62.8c40.5,40.5,62.8,94.4,62.8,151.6v131.8
		c0,57.3-22.3,111.1-62.8,151.6C407.5,663.2,353.7,685.5,296.4,685.5z M296.4,125.4c-57.1,0-110.9,22.3-151.3,62.7
		c-40.4,40.4-62.7,94.1-62.7,151.3v131.8c0,57.1,22.3,110.9,62.7,151.3c40.4,40.4,94.1,62.7,151.3,62.7
		c57.1,0,110.9-22.3,151.3-62.7s62.7-94.1,62.7-151.3V339.3c0-57.1-22.3-110.9-62.7-151.3S353.5,125.4,296.4,125.4z"/>
	<path class="st4" d="M296.4,685.5c-57.3,0-111.1-22.3-151.6-62.8C104.3,582.2,82,528.4,82,471.1V339.3
		c0-57.3,22.3-111.1,62.8-151.6c40.5-40.5,94.4-62.8,151.6-62.8c57.3,0,111.1,22.3,151.6,62.8c40.5,40.5,62.8,94.4,62.8,151.6v131.8
		c0,57.3-22.3,111.1-62.8,151.6C407.5,663.2,353.7,685.5,296.4,685.5z M296.4,125.4c-57.1,0-110.9,22.3-151.3,62.7
		c-40.4,40.4-62.7,94.1-62.7,151.3v131.8c0,57.1,22.3,110.9,62.7,151.3c40.4,40.4,94.1,62.7,151.3,62.7
		c57.1,0,110.9-22.3,151.3-62.7s62.7-94.1,62.7-151.3V339.3c0-57.1-22.3-110.9-62.7-151.3S353.5,125.4,296.4,125.4z"/>
</g>
<g>
	
		<image style="overflow:visible;" width="3256" height="2412" xlink:href="FF18E5E1749DD524.png"  transform="matrix(0.24 0 0 0.24 -91.92 133.92)">
	</image>
	<g>
		<g>
			<path class="st5" d="M86.3,528.7c0,0,77.3-98.8,419.6-131"/>
			<path class="st6" d="M57.9,337.7c0,0,251.1-99.1,470-23.9v82c0,0-354.6,13.7-470,160.7V337.7z"/>
			<g>
				
					<image style="overflow:visible;" width="2236" height="1386" xlink:href="FF18E5E1749DD525.png"  transform="matrix(0.24 0 0 0.24 24.48 252.24)">
				</image>
			</g>
			<path class="st7" d="M57.4,557.9V337.4l0.3-0.1c0.6-0.2,63.9-25,153-40.2c52.4-8.9,103.3-12.9,151.4-11.8
				c60.1,1.4,115.9,10.8,165.9,28l0.3,0.1v82.9l-0.5,0c-0.9,0-89.8,3.7-191.7,25.2c-59.8,12.6-112.3,28.9-156,48.3
				c-54.6,24.2-95.6,53.5-121.9,87L57.4,557.9z M58.4,338.1v217c26.4-33.1,67.2-62.1,121.4-86.1c43.8-19.4,96.4-35.7,156.2-48.4
				c98.1-20.7,184.1-24.9,191.3-25.2v-81.2c-49.8-17.1-105.4-26.4-165.3-27.8c-48-1.1-98.9,2.8-151.2,11.7
				C125,312.7,63.3,336.2,58.4,338.1z"/>
			<g class="st8">
				
					<image style="display:inline;overflow:visible;" width="2266" height="1444" xlink:href="FF18E5E1749DD523.png"  transform="matrix(0.24 0 0 0.24 20.88 248.64)">
				</image>
			</g>
			<g>
				
					<image style="overflow:visible;opacity:0.87;" width="2083" height="884" xlink:href="FF18E5E1749DD52C.png"  transform="matrix(0.24 0 0 0.24 45.72 357)">
				</image>
				<g>
					<path class="st9" d="M87.1,529.3l-1.6-1.2c0.2-0.2,20.2-25.2,81.8-53.7c102.8-47.5,240.8-68.5,338.5-77.6l0.2,2
						c-97.4,9.1-235.1,30-337.6,77.3C107.1,504.3,87.3,529,87.1,529.3z"/>
				</g>
			</g>
		</g>
	</g>
</g>
<g>
	<g>
		<path class="st10" d="M160,358.4c3.4,22.7,5.6,46.2,11.9,68.3c0.1,0.2-0.1,0.5-0.5,0.7c-6.4,2.5-9.6,3.7-16.2,6.3
			c-1.8,0.7-3.6,0.3-3.9-1.1c-2.5-11.9-3.9-24.1-5.2-36.2c-0.4-4.1-4.9-3.3-5.3,1c-1.4,14.5-2.7,29.1-4.7,43.6
			c0,0.2-0.3,0.5-0.6,0.6c-6.4,2.6-9.6,3.9-15.9,6.5c-1.1,0.5-2.2,0.3-2.6-0.5c-5.5-11.4-8-23.9-10.7-36.2c-0.9-4.2-5.3-1.8-5.3,3
			c0.2,13.4,0.3,26.9,1.5,40.3c0,0.3-0.2,0.6-0.5,0.7c-6.6,2.8-9.8,4.2-15.8,6.8c-1,0.4-1.8,0.1-1.9-0.9c-1.7-32.3-0.3-64.7,0-97
			l0,0c0-2.9,1.6-5.5,3.6-6.3c16.6-6.6,33.3-13,50.1-19.3c0.9-0.2-15.4,11.2-21.1,15.1c-3.3,2.3-5.1,7.7-4,12.5
			c2.3,10.2,4.5,20.5,6.9,30.7c1,4.4,5.7,2.7,6.2-2.2c1.6-14.2,3.1-28.4,4.6-42.6c0,0-0.3-4.4,6-7.7c12.6-6.7,30.1-9.5,44.8-13.1
			c21.3-5.2,43.1-9.3,65-12.2c0,0,2.4,0.1,0.6,1.3c-27.3,6.4-53.6,14.8-79.7,25c0,0,0,0,0,0C167.4,345.5,159.4,349.1,160,358.4
			C160,358.4,160,358.4,160,358.4z"/>
		<path class="st10" d="M228.2,401.2c-4.6,1.7-7.3,2.6-13.1,4.8c0,0,0,0,0,0c0,0,0-0.1,0-0.1c-0.7-2.5-3.8-3-5.3-0.7
			c-0.6,0.9-1.3,1.8-2,2.5c-2.1,2.2-5,4-8.9,5.4c-5.2,2-10,2.3-14,0.4c-4-1.9-6.8-6.5-8.3-14.7c-2.2-11.6-4-23.3-6-35
			c-0.6-3.7,1.1-7.3,3.9-8c5.3-1.5,8-2.2,13.2-3.6c0.3-0.1,0.6,0.2,0.6,0.5c2.2,11.3,4.4,22.7,6.6,34c0.8,3.9,1.9,6.3,3.4,7.5
			c1.5,1.1,3.2,1.3,5.1,0.6c2.1-0.7,3.6-2.3,4.5-4.8c0.9-2.5,0.8-6.4-0.3-11.9c-1.8-9.7-3.6-19.3-5.5-29c-0.1-0.3,0.1-0.7,0.4-0.8
			c6.8-1.7,10.2-2.5,16.8-3.9c0.3-0.1,0.5,0.2,0.6,0.5c2.7,18.5,5,37.2,8.7,55.6C228.6,400.9,228.4,401.2,228.2,401.2z"/>
		<path class="st10" d="M233.5,384.5c4-1.9,10.4-4.3,17.2-6.9c0,0,0,0,0,0c1.1,2.2,2.5,3.5,4.1,4.1c1.6,0.6,3.6,0.5,6.1-0.2
			c2.7-0.7,4.7-1.8,6-3.2c1-1.1,1.5-2.2,1.3-3.5c-0.2-1.4-1-2.3-2.6-2.7c-1.1-0.3-4-0.3-8.8,0c-7.1,0.5-12.2,0.7-15.1,0.3
			c-2.9-0.4-5.4-1.6-7.6-3.9c-2.2-2.2-3.2-5.3-3.5-8.9c-0.4-4,0.2-7.6,2-10.8c1.8-3.3,4.4-5.9,7.8-7.9c3.4-2,8.1-3.5,14-4.4
			c6.2-1,10.8-1.2,13.8-0.6c3,0.5,5.6,1.7,7.7,3.4c2,1.6,3.8,3.9,5.3,6.8c0.2,0.3,0,0.7-0.4,0.8c-7,1.8-10.5,2.7-17.6,4.9
			c0,0,0,0,0,0c-0.7-1.7-1.6-2.8-2.8-3.4c-1.7-0.8-3.6-1-5.8-0.6c-2.3,0.4-3.9,1.2-4.8,2.3c-1,1.1-1.4,2.3-1.2,3.5
			c0.1,1.4,0.9,2.3,2.3,2.7c1.4,0.4,4.3,0.4,8.7,0.1c6.7-0.5,11.6-0.4,15,0.4c3.3,0.8,5.9,2.3,7.8,4.5c1.9,2.2,3.1,4.7,3.4,7.5
			c0.3,2.9-0.2,5.7-1.6,8.6c-1.4,2.9-3.9,5.4-7.5,7.7c-3.6,2.3-8.7,4.3-15.5,6.3c-9.5,2.8-16.8,4.1-21.3,3.1
			C235.3,393.5,234.7,389.6,233.5,384.5C233.5,384.5,233.5,384.5,233.5,384.5z"/>
		<path class="st10" d="M315.3,378.4c-7.1,1.1-10.7,1.8-18,3.2c-0.3,0.1-0.6-0.1-0.6-0.3c-1.3-17.4-2.1-34.8-3.1-52.2
			c0-0.3-0.2-2.5,0.1-2.5c7.5-0.7,11.3-1,18.7-1.5c0.3,0,0.6,0.2,0.6,0.5c-0.4,4.6-0.6,7-0.9,12c0.1,3,4,4.3,5.7,1.8
			c2.6-3.7,3.9-5.6,6.5-9.1c0.1-0.1,0.2-0.2,0.4-0.2c8.6-0.6,12.9-0.9,21.3-1.4c0.4,0,0.7,0.4,0.5,0.7c-5,7-7.4,10.7-12.3,18.2
			c-1.5,2.3-1.3,5.3,0.5,7.3c7,7.8,10.4,11.5,17.2,18.2c0.3,0.3,0.1,0.7-0.3,0.7c-7.5,0.8-11.3,1.2-18.9,2.2c-0.2,0-0.3,0-0.4-0.1
			c-4.8-4.2-7.3-6.6-12.2-11.5c-1.9-1.9-5.3-0.3-5.1,2.4c0.4,4.7,0.6,7,1,11.2C315.7,378.1,315.5,378.3,315.3,378.4z"/>
		<path class="st10" d="M350.2,351.7c-0.7-7.1,1.2-13.2,5.6-18.1c4.4-4.9,10.8-7.5,19-8.1c9.4-0.7,16.6,1.5,21.4,6.4
			c3.9,4,5.9,9,6.3,15c0.4,6.8-1.4,12.4-5.4,17.1c-4,4.6-10.1,7.2-18.3,8c-7.4,0.7-13.5-0.4-18.4-3.4
			C354.4,364.9,350.9,359.3,350.2,351.7z M368.1,350.1c0.4,4.1,1.5,6.9,3.3,8.7c1.8,1.7,4,2.5,6.5,2.2c2.5-0.2,4.6-1.4,6-3.4
			c1.5-2,2-5.1,1.7-9.2c-0.3-3.9-1.3-6.8-3.1-8.5c-1.8-1.8-4-2.6-6.4-2.4c-2.6,0.2-4.7,1.4-6.2,3.5
			C368.4,343,367.8,346.1,368.1,350.1z"/>
		<path class="st10" d="M426.5,366.4c-5.7,0.6-8.6,0.9-14.6,1.5c-0.2,0-0.4-0.2-0.4-0.4c-0.3-16.2,0-32.4,0-48.7
			c0-0.2,0.2-0.4,0.4-0.4c6.1-0.1,9.1,0,15,0c0.3,0,0.5,0.2,0.5,0.5c-0.2,4.5-0.3,6.8-0.5,11.3c-0.2,2.6,3,3.9,4.7,1.9
			c2.5-3,3.8-4.5,6.4-7.3c0.1-0.1,0.2-0.1,0.3-0.1c7.5,0.1,11.2,0.2,18.7,0.4c0.4,0,0.5,0.4,0.3,0.6c-5.1,6.3-7.7,9.5-12.4,16.3
			c-1.2,1.7-1.2,3.9-0.1,5.4c4.6,6.4,6.8,9.5,11.4,15.7c0.2,0.3,0,0.7-0.3,0.7c-6.2,0.5-9.3,0.7-15.4,1.3c-0.1,0-0.2,0-0.3-0.1
			c-2.8-3.7-4.2-5.6-7-9.4c-1.5-2.1-4.9-1-5.2,1.8c-0.4,3.5-0.6,5.3-0.9,8.7C426.9,366.2,426.7,366.4,426.5,366.4z"/>
		<path class="st10" d="M490.1,362.6c0-1.2,0-1.7,0-2.9l0,0c-0.3-1-1.7-1.4-2.7-0.7c-1.5,1-2.9,1.9-4.3,2.4c-2.8,1.2-6.1,1.9-9.7,2
			c-4.8,0.2-8.3-0.6-10.7-2.6c-2.4-2-3.5-4.6-3.3-7.7c0.1-2.9,1.2-5.4,3.1-7.3c1.9-1.9,5.4-3.3,10.4-4.3c6.1-1.1,10.2-1.9,12.1-2.3
			c0.7-0.2,1.1-0.2,1.9-0.4c0,0,0,0,0,0c8.7-1.1,3.5-4.7,3.5-4.7c-0.8-0.7-2.2-1-4.3-1c-2.7,0-4.8,0.3-6.2,1
			c-1.1,0.6-2.1,1.6-2.9,3.2c0,0,0,0,0,0c-5.9-0.5-8.8-0.8-14.6-1.4c-0.3,0-0.4-0.3-0.3-0.5c0.7-2.2,1.7-4,2.8-5.3
			c1.2-1.4,2.9-2.5,5.1-3.5c1.6-0.7,3.7-1.2,6.4-1.5c2.7-0.3,5.6-0.4,8.8-0.4c5.1,0.1,9.2,0.4,12.3,1c3.1,0.5,5.6,1.5,7.6,3
			c1.4,1,2.3,2.4,2.9,4.2c0.6,1.8,0.7,3.5,0.4,5.1c-1.1,6.1-1.8,9.1-2.5,15.5c-0.4,3.1-0.5,4.7-0.6,8l0,0
			C498.9,362,495.9,362.2,490.1,362.6z M482.9,346.4c-3.4,0.8-5.5,1.6-6.4,2.4c-1,0.8-1.5,1.7-1.6,2.7c-0.1,1.1,0.3,2,1.1,2.7
			c0.8,0.7,2,1,3.7,0.9c1.8-0.1,3.4-0.5,5.1-1.3c1.6-0.8,3.3-1.7,3.6-2.9C489.8,345.6,482.9,346.4,482.9,346.4z"/>
	</g>
</g>
<g>
	<g>
		<path class="st3" d="M166.2,362.1c3.4,22.6,5.4,46.3,12,68.3c0.1,0.2-0.1,0.5-0.5,0.7c-7.4,2.9-11.2,4.4-18.9,7.4
			c-0.3,0.1-0.7,0.1-0.7-0.2c-2.9-12.6-4.2-25.5-5.7-38.3c-0.4-4.1-4.9-3.3-5.3,1c-1.4,14.6-2.7,29.2-4.7,43.7
			c0,0.2-0.3,0.5-0.5,0.6c-7,2.8-10.5,4.2-17.4,7.1c-0.3,0.1-0.5,0.1-0.6-0.1c-5.9-11.7-8.4-24.6-11.2-37.3
			c-0.9-4.2-5.3-1.7-5.2,2.9c0.2,13.5,0.3,27,1.5,40.4c0,0.3-0.2,0.6-0.5,0.7c-7.2,3-10.6,4.5-17.1,7.4c-0.3,0.1-0.5,0-0.6-0.2
			c-1.9-32.6-0.4-65.5,0-98.2c0-0.4-0.2-4.8,0-4.9c17.8-7.1,35.7-14,53.6-20.7c0.9-0.2-15.4,11.2-21,15.1c-3.3,2.3-5.1,7.7-4,12.5
			c2.3,10.3,4.6,20.5,6.9,30.8c1,4.4,5.6,2.7,6.2-2.2c1.6-14.2,3.1-28.4,4.5-42.6c0,0-0.3-4.4,6-7.7c30.1-16,73.8-20.5,109.7-25.3
			c0,0,2.4,0.1,0.6,1.3c-27.3,6.4-53.6,14.8-79.7,25C173.5,349.1,165.5,352.7,166.2,362.1z"/>
		<path class="st3" d="M234.3,404.9c-4.6,1.7-7.3,2.6-13.1,4.8c0,0,0,0,0,0c0,0,0-0.1,0-0.1c-0.7-2.5-3.8-3-5.3-0.7
			c-0.6,0.9-1.3,1.8-2,2.5c-2.1,2.2-5,4-8.9,5.4c-5.2,2-10,2.3-14,0.4c-4-1.9-6.8-6.5-8.3-14.7c-2.5-13.6-4.7-27.3-7-40.9
			c-0.1-0.4,0.1-0.7,0.4-0.8c7.1-2,10.7-3,17.7-4.9c0.3-0.1,0.6,0.2,0.6,0.5c2.2,11.3,4.4,22.7,6.6,34c0.8,3.9,1.9,6.3,3.4,7.5
			c1.5,1.1,3.2,1.3,5.1,0.6c2.1-0.7,3.6-2.3,4.5-4.8c0.9-2.5,0.8-6.4-0.3-11.9c-1.8-9.7-3.6-19.3-5.5-29c-0.1-0.3,0.1-0.7,0.4-0.8
			c6.8-1.7,10.2-2.5,16.7-3.9c0.3-0.1,0.5,0.2,0.6,0.5c2.7,18.5,5,37.2,8.7,55.6C234.6,404.6,234.5,404.8,234.3,404.9z"/>
		<path class="st3" d="M239.6,388.1c7-3,10.4-4.3,17.2-6.9c0,0,0,0,0,0c1.1,2.2,2.5,3.5,4.1,4.1c1.6,0.6,3.6,0.5,6.1-0.2
			c2.7-0.7,4.7-1.8,6-3.2c1-1.1,1.5-2.2,1.3-3.5c-0.2-1.4-1-2.3-2.6-2.7c-1.1-0.3-4-0.3-8.8,0c-7.1,0.5-12.2,0.7-15.1,0.3
			c-2.9-0.4-5.4-1.6-7.6-3.9c-2.2-2.2-3.2-5.3-3.5-8.9c-0.4-4,0.2-7.6,2-10.8c1.8-3.3,4.4-5.9,7.8-7.9c3.4-2,8.1-3.5,14-4.4
			c6.2-1,10.8-1.2,13.8-0.6c3,0.5,5.6,1.7,7.7,3.4c2,1.6,3.8,3.9,5.3,6.8c0.2,0.3,0,0.7-0.4,0.8c-7,1.8-10.5,2.7-17.6,4.9
			c0,0,0,0,0,0c-0.7-1.7-1.6-2.8-2.8-3.4c-1.7-0.8-3.6-1-5.8-0.6c-2.3,0.4-3.9,1.2-4.8,2.3c-1,1.1-1.4,2.3-1.2,3.5
			c0.1,1.4,0.9,2.3,2.3,2.7c1.4,0.4,4.3,0.4,8.7,0.1c6.7-0.5,11.6-0.4,14.9,0.4s5.9,2.3,7.8,4.5c1.9,2.2,3.1,4.7,3.4,7.5
			c0.3,2.9-0.2,5.7-1.6,8.6c-1.4,2.9-3.9,5.4-7.5,7.7c-3.6,2.3-8.7,4.3-15.5,6.3c-9.5,2.8-16.8,4.1-21.3,3.1
			C241.4,397.1,241.3,393,239.6,388.1C239.6,388.1,239.6,388.1,239.6,388.1z"/>
		<path class="st3" d="M321.4,382c-7.1,1.1-10.7,1.8-18,3.2c-0.3,0.1-0.6-0.1-0.6-0.3c-1.3-17.4-2.1-34.8-3.1-52.2
			c0-0.3-0.2-2.5,0.1-2.5c7.5-0.7,11.3-1,18.7-1.5c0.3,0,0.6,0.2,0.6,0.5c-0.4,4.6-0.6,7-0.9,12c0.1,3,4,4.3,5.7,1.8
			c2.6-3.7,3.9-5.6,6.5-9.1c0.1-0.1,0.2-0.2,0.4-0.2c8.6-0.6,12.9-0.9,21.3-1.4c0.4,0,0.7,0.4,0.5,0.7c-4.9,7-7.4,10.7-12.3,18.2
			c-1.5,2.3-1.3,5.3,0.5,7.3c7,7.8,10.4,11.5,17.2,18.2c0.3,0.3,0.1,0.7-0.3,0.7c-7.5,0.8-11.3,1.2-18.9,2.2c-0.2,0-0.3,0-0.4-0.1
			c-4.8-4.2-7.3-6.6-12.2-11.5c-1.9-1.9-5.3-0.3-5.1,2.4c0.4,4.7,0.6,7,1,11.2C321.8,381.8,321.6,382,321.4,382z"/>
		<path class="st3" d="M356.3,355.4c-0.7-7.1,1.2-13.2,5.6-18.1c4.4-4.9,10.8-7.5,19-8.1c9.4-0.7,16.6,1.5,21.4,6.4
			c3.9,4,5.9,9,6.3,15c0.4,6.8-1.4,12.4-5.4,17.1c-4,4.6-10.1,7.2-18.3,8c-7.4,0.7-13.5-0.4-18.4-3.4
			C360.5,368.5,357,363,356.3,355.4z M374.2,353.7c0.4,4.1,1.5,6.9,3.3,8.7c1.8,1.7,4,2.5,6.5,2.2c2.5-0.2,4.6-1.4,6-3.4
			c1.5-2,2-5.1,1.7-9.2c-0.3-3.9-1.3-6.8-3.1-8.5c-1.8-1.8-3.9-2.6-6.4-2.4c-2.6,0.2-4.7,1.4-6.2,3.5S373.9,349.7,374.2,353.7z"/>
		<path class="st3" d="M432.6,370.1c-5.7,0.6-8.6,0.9-14.6,1.5c-0.2,0-0.4-0.2-0.4-0.4c-0.3-16.2,0-32.4,0-48.7
			c0-0.2,0.2-0.4,0.4-0.4c6.1-0.1,9.1,0,15,0c0.3,0,0.5,0.2,0.5,0.5c-0.2,4.5-0.3,6.8-0.5,11.3c-0.2,2.6,3,3.9,4.7,1.9
			c2.5-3,3.8-4.5,6.4-7.3c0.1-0.1,0.2-0.1,0.3-0.1c7.5,0.1,11.2,0.2,18.6,0.4c0.4,0,0.5,0.4,0.3,0.6c-5.1,6.3-7.7,9.5-12.4,16.3
			c-1.2,1.7-1.2,3.9-0.1,5.4c4.6,6.4,6.8,9.5,11.4,15.7c0.2,0.3,0,0.7-0.3,0.7c-6.2,0.5-9.3,0.7-15.4,1.3c-0.1,0-0.2,0-0.3-0.1
			c-2.8-3.7-4.2-5.6-7-9.4c-1.5-2.1-4.9-1-5.2,1.8c-0.4,3.5-0.6,5.3-0.9,8.7C433,369.9,432.8,370.1,432.6,370.1z"/>
		<path class="st3" d="M496.2,366.3c0-1.2,0-1.7,0-2.9l0,0c-0.3-1-1.7-1.4-2.7-0.7c-1.5,1-2.9,1.9-4.3,2.4c-2.8,1.2-6.1,1.9-9.7,2
			c-4.8,0.2-8.3-0.6-10.7-2.6c-2.4-2-3.5-4.6-3.3-7.7c0.1-2.9,1.2-5.4,3.1-7.3c1.9-1.9,5.4-3.3,10.4-4.3c6.1-1.1,10.2-1.9,12.1-2.3
			c0.7-0.2,1.1-0.2,1.9-0.4c0,0,0,0,0,0c8.7-1.1,3.5-4.7,3.5-4.7c-0.8-0.7-2.2-1-4.3-1c-2.7,0-4.8,0.3-6.2,1
			c-1.1,0.6-2.1,1.6-2.9,3.2c0,0,0,0,0,0c-5.9-0.5-8.8-0.8-14.6-1.4c-0.3,0-0.4-0.3-0.3-0.5c0.7-2.2,1.7-4,2.8-5.3
			c1.2-1.4,2.9-2.5,5-3.5c1.6-0.7,3.7-1.2,6.4-1.5c2.7-0.3,5.6-0.4,8.8-0.4c5.1,0.1,9.2,0.4,12.3,1c3.1,0.5,5.6,1.5,7.6,3
			c1.4,1,2.3,2.4,2.9,4.2c0.6,1.8,0.7,3.5,0.4,5.1c-1.1,6.1-1.8,9.1-2.5,15.5c-0.4,3.1-0.5,4.7-0.6,8c0,0,0,0,0,0
			C504.9,365.7,501.9,365.9,496.2,366.3z M489,350.1c-3.4,0.8-5.5,1.6-6.4,2.4c-1,0.8-1.5,1.7-1.6,2.7c-0.1,1.1,0.3,2,1.1,2.7
			c0.8,0.7,2,1,3.7,0.9c1.8-0.1,3.4-0.5,5.1-1.3c1.6-0.8,3.3-1.7,3.6-2.9C495.9,349.3,489,350.1,489,350.1z"/>
	</g>
</g>
<g>
	<polygon class="st10" points="84.5,462.7 90.1,466.6 90.1,460.4 	"/>
	<polygon class="st10" points="118.1,448.6 123.1,451.9 120.6,446.9 	"/>
	<polygon class="st10" points="152.2,434.4 156.2,432.5 157.9,437.8 	"/>
	<polygon class="st10" points="193.7,355.7 187.5,352 187.5,357.1 	"/>
	<path class="st10" d="M235,389.4c0,0,2,7.8,8.4,7.9c0,0,0.2,0.9-1.9-2.8c-2.1-3.8-2.3-6.7-2.3-6.7L235,389.4z"/>
	<polygon class="st10" points="250.6,377.7 256.6,381.3 254.3,382.2 250.4,378.8 	"/>
	<path class="st10" d="M232.8,367c0,0,6.6,8.7,12,8.4c0,0-3.9-2-5-3.6S232.8,367,232.8,367z"/>
	<path class="st11" d="M262.9,351.2l0.7,2.4l1.7-0.6l0.5-1.3C265.8,351.7,263.3,351,262.9,351.2z"/>
	<path class="st10" d="M270,336.3c0,0,7.8,2.7,10.2,5.3c0,0-3.9-2.1-7.1-2.2c-3.2-0.1-2.3-2-2.3-2L270,336.3z"/>
	<polygon class="st10" points="219.5,344.4 225.6,348 219,349.5 	"/>
	<polygon class="st10" points="312.3,325 318.7,328.7 311.8,329.1 	"/>
	<polygon class="st10" points="346,328.6 352.1,332.2 342.8,332.8 	"/>
	<polygon class="st10" points="296.7,381.4 302.7,385.1 302.3,379.5 	"/>
	<polygon class="st10" points="332.3,376 338.1,379.5 333.7,375.6 	"/>
	<path class="st10" d="M411.6,367.7c0.2,0.1,6,3.7,6,3.7l-0.1-4.4L411.6,367.7z"/>
	<polygon class="st10" points="440,364.9 446,368.6 443.2,364.8 	"/>
	<polygon class="st10" points="457,325 463.1,328.7 454.5,328.5 	"/>
	<polygon class="st10" points="462,336.1 468.1,339.1 469.2,336.5 462,335.7 	"/>
	<path class="st10" d="M460.7,358.3c0,0,5.9,8,10.8,7.9c0,0-3.7-1.9-4.6-4S460.7,358.3,460.7,358.3z"/>
	<path class="st10" d="M499.9,326.5c0,0,10.4,3.2,12.1,6.9c0,0-3.9-3.2-6.7-3.4S499.9,326.5,499.9,326.5z"/>
</g>
<image style="display:none;overflow:visible;" width="1536" height="2048" xlink:href="FF18E5E1749DD52C.jpg"  transform="matrix(1 0 0 1 455.5934 -918.6276)">
</image>
<g>
	<g>
		<path class="st3" d="M190.2,219.1c1.7,0,3.1,0.3,4.1,1c0.9,0.7,1.6,1.8,1.6,3.4c0,3.5-3,4.9-5.3,4.9c-0.3,0-0.5,0-0.6,0l-1.7-0.4
			v3.7c0,2,0.2,2.1,2.4,2.3v0.7H184V234c2.1-0.2,2.2-0.4,2.2-2.4v-9.5c0-2.1-0.3-2.2-2.2-2.4v-0.7H190.2z M188.2,227.1
			c0.3,0.1,0.9,0.3,1.8,0.3c1.6,0,3.6-0.8,3.6-3.8c0-2.6-1.7-3.7-3.7-3.7c-0.7,0-1.2,0.1-1.3,0.3c-0.2,0.2-0.3,0.5-0.3,1.1V227.1z"
			/>
		<path class="st3" d="M212,234.9c-0.3,0-0.6,0-0.9,0c-1.8-0.1-2.7-0.6-3.7-2.1c-0.9-1.2-1.8-2.7-2.5-4c-0.5-0.8-0.8-0.9-2-0.9H202
			v3.8c0,2,0.3,2.2,2.2,2.4v0.7h-6.4V234c2-0.2,2.2-0.3,2.2-2.4v-9.6c0-2-0.3-2.1-2.2-2.3v-0.7h6.1c1.8,0,2.9,0.2,3.8,0.8
			c1,0.6,1.6,1.7,1.6,3.2c0,2.1-1.3,3.4-3.1,4.1c0.4,0.7,1.5,2.4,2.2,3.4c0.9,1.3,1.3,1.9,1.9,2.5c0.6,0.7,1.2,1,1.8,1.1L212,234.9z
			 M203.2,227.1c1.2,0,2-0.2,2.6-0.7c0.9-0.7,1.3-1.7,1.3-3c0-2.6-1.7-3.5-3.6-3.5c-0.7,0-1.1,0.1-1.3,0.2c-0.2,0.2-0.3,0.4-0.3,1
			v5.9H203.2z"/>
		<path class="st3" d="M225,230.9c-0.1,0.6-0.8,3.1-1,3.8h-11.7V234c2.2-0.2,2.4-0.4,2.4-2.4v-9.5c0-2.1-0.3-2.3-2.1-2.4v-0.7h7.3
			c2.3,0,3.2,0,3.5,0c0,0.6,0.1,2.4,0.2,3.7l-0.7,0.1c-0.2-0.8-0.5-1.3-0.7-1.8c-0.4-0.8-0.9-1-2.4-1h-2.3c-0.7,0-0.8,0.1-0.8,0.8
			v5.3h2.7c1.8,0,1.9-0.4,2.2-2h0.7v4.9h-0.7c-0.3-1.7-0.5-2-2.2-2h-2.6v4.8c0,1.7,0.5,1.8,1.7,1.8h2.2c1.5,0,1.7-0.2,2.2-0.8
			c0.5-0.5,1-1.5,1.3-2.2L225,230.9z"/>
		<path class="st3" d="M240,234.7V234c2-0.2,2-0.3,2-2.9l0-9.8c-2,4.4-5.1,11.3-6,13.4h-0.6c-0.8-2.2-3.5-8.8-5.4-13.1
			c-0.4,8.4-0.4,10.3-0.4,10.8c0,1.3,0.6,1.5,2.3,1.7v0.7h-5.7V234c1.4-0.1,2-0.4,2.2-1.7c0.1-1.1,0.2-1.9,0.8-10.7
			c0.1-1.2-0.1-1.7-2.3-1.8v-0.7h4.2l5.3,12.2l5.7-12.2h4.2v0.7c-2.1,0.2-2.3,0.5-2.3,2.1l0.1,9.2c0.1,2.6,0.2,2.7,2.3,2.9v0.7H240z
			"/>
		<path class="st3" d="M248.3,234.7V234c2-0.2,2.2-0.3,2.2-2.4v-9.5c0-2.1-0.2-2.2-2.2-2.4v-0.7h6.4v0.7c-2,0.2-2.2,0.3-2.2,2.4v9.5
			c0,2.1,0.2,2.1,2.2,2.4v0.7H248.3z"/>
		<path class="st3" d="M273.3,219.8c-1.5,0.1-2.1,0.5-2.1,1.6c0,0.6-0.1,1.6-0.1,3.8v2.6c0,2.4-0.3,4.3-1.7,5.8
			c-1.1,1.2-2.8,1.5-4.4,1.5c-1.4,0-2.9-0.3-3.9-1.1c-1.4-1.1-2.1-2.8-2.1-5.6v-6.1c0-2.2-0.2-2.3-2.1-2.5v-0.7h6.3v0.7
			c-1.9,0.1-2.1,0.3-2.1,2.5v6c0,3.5,1.7,5.4,4.5,5.4c3.4,0,4.5-2.1,4.5-6.1v-2.4c0-2.2-0.1-3.1-0.1-3.8c-0.1-1.1-0.6-1.5-2.4-1.6
			v-0.7h5.8V219.8z"/>
		<path class="st3" d="M288,234.7V234c2-0.2,2-0.3,2-2.9l0-9.8c-2,4.4-5.1,11.3-6,13.4h-0.6c-0.8-2.2-3.5-8.8-5.4-13.1
			c-0.4,8.4-0.4,10.3-0.4,10.8c0,1.3,0.6,1.5,2.3,1.7v0.7h-5.7V234c1.4-0.1,2-0.4,2.2-1.7c0.1-1.1,0.2-1.9,0.8-10.7
			c0.1-1.2-0.1-1.7-2.3-1.8v-0.7h4.2l5.3,12.2l5.7-12.2h4.2v0.7c-2.1,0.2-2.3,0.5-2.3,2.1l0.1,9.2c0.1,2.6,0.2,2.7,2.3,2.9v0.7H288z
			"/>
		<path class="st3" d="M310.1,218.8c4.1,0,7.8,3.1,7.8,7.9c0,5.2-3.6,8.4-8,8.4c-4.4,0-7.9-3.4-7.9-8
			C301.9,222.7,305,218.8,310.1,218.8z M309.6,219.7c-2.7,0-5.1,2.3-5.1,6.7s2.4,7.8,5.9,7.8c2.7,0,5.1-2.2,5.1-6.8
			C315.4,222.3,312.7,219.7,309.6,219.7z M311.2,233.5c2.5,1.9,5.2,3.6,7.4,4.5l-0.2,0.6c-1.2,0-2.5-0.1-3.2-0.3
			c-1.7-0.5-4.5-2.5-6.4-3.9L311.2,233.5z"/>
		<path class="st3" d="M336.4,219.8c-1.5,0.1-2.1,0.5-2.1,1.6c0,0.6-0.1,1.6-0.1,3.8v2.6c0,2.4-0.3,4.3-1.7,5.8
			c-1.1,1.2-2.8,1.5-4.4,1.5c-1.4,0-2.9-0.3-3.9-1.1c-1.4-1.1-2.1-2.8-2.1-5.6v-6.1c0-2.2-0.2-2.3-2.1-2.5v-0.7h6.3v0.7
			c-1.9,0.1-2.1,0.3-2.1,2.5v6c0,3.5,1.7,5.4,4.5,5.4c3.4,0,4.5-2.1,4.5-6.1v-2.4c0-2.2-0.1-3.1-0.1-3.8c-0.1-1.1-0.6-1.5-2.4-1.6
			v-0.7h5.8V219.8z"/>
		<path class="st3" d="M345.9,234.7V234c1.6-0.2,1.8-0.4,1.4-1.3c-0.3-0.9-0.8-2.1-1.3-3.6h-5.2c-0.4,1.1-0.7,2-1.1,3
			c-0.5,1.6-0.2,1.8,1.8,2v0.7H336V234c1.5-0.2,1.9-0.4,2.7-2.5l5-12.6l0.8-0.1c1.5,4.1,3.2,8.6,4.7,12.8c0.8,2.1,1,2.3,2.7,2.5v0.7
			H345.9z M343.5,221.9c-0.8,2.1-1.6,4.2-2.3,6.1h4.5L343.5,221.9z"/>
		<path class="st3" d="M364.4,230.7c-0.1,0.7-0.9,3.2-1.1,4h-11.2V234c2.2-0.2,2.4-0.3,2.4-2.4v-9.5c0-2-0.2-2.2-2.2-2.4v-0.7h6.4
			v0.7c-1.9,0.2-2.2,0.3-2.2,2.4v9.8c0,1.5,0.2,1.8,1.6,1.8c0,0,1.8,0,1.9,0c1.2,0,1.6-0.1,2.1-0.7c0.6-0.6,1.1-1.6,1.5-2.5
			L364.4,230.7z"/>
		<path class="st3" d="M366,234.7V234c2-0.2,2.2-0.3,2.2-2.4v-9.5c0-2.1-0.2-2.2-2.2-2.4v-0.7h6.4v0.7c-2,0.2-2.2,0.3-2.2,2.4v9.5
			c0,2.1,0.2,2.1,2.2,2.4v0.7H366z"/>
		<path class="st3" d="M387.2,222.9c-0.2-0.8-0.5-1.6-0.8-2c-0.4-0.6-0.6-0.8-1.9-0.8h-2.4v11.7c0,1.9,0.2,2.1,2.5,2.3v0.7h-7V234
			c2.2-0.1,2.4-0.4,2.4-2.3v-11.7h-2.2c-1.3,0-1.7,0.1-2.1,0.9c-0.3,0.5-0.5,1.1-0.8,1.9h-0.7c0.1-1.5,0.3-3,0.4-4.3h0.6
			c0.4,0.6,0.6,0.6,1.3,0.6h9.5c0.7,0,0.9-0.1,1.2-0.6h0.6c0,1.1,0.1,2.9,0.2,4.2L387.2,222.9z"/>
		<path class="st3" d="M402.7,219.8c-1.7,0.2-2,0.5-2.9,2c-1.1,1.8-2,3.4-3.1,5.5c-0.3,0.6-0.4,0.8-0.4,1.4v3c0,2,0.2,2.1,2.4,2.4
			v0.7h-6.9V234c2.2-0.3,2.4-0.3,2.4-2.4v-3.1c0-0.5-0.1-0.7-0.5-1.4c-0.8-1.6-1.7-3.1-3-5.3c-0.9-1.6-1.2-1.9-2.8-2.1v-0.7h5.9v0.7
			c-1.7,0.2-1.6,0.6-1.2,1.4c1,1.8,2.1,4,3.1,5.8c0.9-1.6,2.2-4.2,2.9-5.5c0.6-1.2,0.5-1.4-1.4-1.6v-0.7h5.4V219.8z"/>
	</g>
</g>
<g>
	<path class="st3" d="M184,209.5"/>
	<g>
		<path class="st3" d="M184,210.1c0.8,0,0.8-1.2,0-1.2C183.2,208.8,183.2,210.1,184,210.1L184,210.1z"/>
	</g>
</g>
<g>
	<g>
		<path class="st3" d="M183.2,244.1c2.9,0,5.7,0,8.6,0c7.6,0,15.2,0,22.8,0c10.9,0,21.7,0,32.6,0c12.6,0,25.3,0,37.9,0
			c13,0,25.9,0,38.9,0c11.8,0,23.6,0,35.4,0c9.2,0,18.3,0,27.5,0c5.1,0,10.1,0,15.2,0c0.8,0,1.6,0,2.4-0.1c3.2-0.2,6.6-0.1,9.7,0.5
			c3.7,0.7,9.2,2.4,9.5,6.9c0.3,5.2-6,7.9-10.3,6.4c-2.2-0.8-3.8-2.5-4.3-4.8c-0.4-1.9,0.5-4,2.4-4.7c0.9-0.3,2-0.3,2.9-0.2
			c1.8,0.1,3.6,0.8,4.7,2.3c0.9,1.1,1.8,3.1,0.2,4c-0.9,0.5-2,0.6-3.1,0.6c-0.2,0-0.6,0-0.3,0c-0.4-0.1-0.8-0.2-1.1-0.3
			c-1.5-0.6-2.6-1.6-1.9-3.3c0.3-0.7-0.8-1.4-1.1-0.6c-2.1,5,5.7,7.1,8.7,4.2c2.6-2.5-0.9-6.5-3.3-7.5c-2.2-0.9-5.4-1.1-7.5,0.4
			c-3,2.2-2.4,6.3-0.2,8.9c3.2,3.7,9.8,3.3,13.2,0.1c2.9-2.7,3-7.5,0-10.2c-3.1-2.7-7.6-3.6-11.5-3.9c-4.2-0.4-8.6-0.1-12.9-0.1
			c-7.2,0-14.4,0-21.6,0c-11.1,0-22.2,0-33.2,0c-13.3,0-26.5,0-39.8,0c-13.6,0-27.2,0-40.8,0c-12.4,0-24.8,0-37.2,0
			c-9.3,0-18.6,0-27.9,0c-4.6,0-9.2,0-13.8,0c-0.2,0-0.4,0-0.6,0C182.4,242.8,182.4,244.1,183.2,244.1L183.2,244.1z"/>
	</g>
</g>
<g>
	<g>
		<path class="st3" d="M405.8,238c-3.2,0-6.4,0-9.5,0c-8.3,0-16.7,0-25,0c-11.8,0-23.6,0-35.4,0c-13.5,0-27,0-40.5,0
			c-13.5,0-27,0-40.5,0c-11.8,0-23.6,0-35.4,0c-8.3,0-16.5,0-24.8,0c-3.1,0-6.2,0.1-9.3,0c-2.6-0.1-5.2-0.2-7.9,0.1
			c-3.9,0.4-8.6,1.3-11.4,4.2c-2.8,2.9-2.4,7.8,0.8,10.3c3.5,2.8,9.8,3.1,12.8-0.7c2.3-2.8,2.6-6.9-0.7-9.1c-2-1.3-5.3-0.9-7.3,0
			c-2.4,1.1-5.6,5.1-2.9,7.5c1.2,1.1,3.5,1.4,5.1,1.1c2.7-0.6,4.7-2.7,3.5-5.4c-0.3-0.7-1.4-0.1-1.1,0.6c0.7,1.7-0.5,2.8-2,3.4
			c-0.3,0.1-0.6,0.2-0.9,0.3c0.3-0.1-0.3,0-0.5,0c-1,0-2.2-0.1-3.1-0.7c-1.6-1.1-0.4-3.3,0.6-4.3c1.2-1.3,2.9-1.8,4.6-1.9
			c0.8,0,1.9-0.1,2.7,0.2c2.1,0.8,2.8,3.1,2.2,5.1c-0.7,2.3-2.3,3.8-4.6,4.5c-4.5,1.3-10.7-1.7-9.9-7c0.7-4.4,6.3-5.9,10-6.5
			c3.4-0.6,6.7-0.4,10.2-0.4c3.8,0.1,7.7,0,11.5,0c8.3,0,16.6,0,24.9,0c11.3,0,22.6,0,33.9,0c12.8,0,25.6,0,38.4,0
			c12.9,0,25.7,0,38.6,0c11.4,0,22.8,0,34.3,0c8.5,0,17,0,25.5,0c4.1,0,8.3,0,12.4,0c0.2,0,0.4,0,0.5,0
			C406.6,239.3,406.6,238,405.8,238L405.8,238z"/>
	</g>
</g>
<g>
	<g>
		<path class="st3" d="M185,210c3.2,0,6.4,0,9.5,0c8.3,0,16.7,0,25,0c11.8,0,23.6,0,35.4,0c13.5,0,27,0,40.5,0c13.5,0,27,0,40.5,0
			c11.8,0,23.6,0,35.4,0c8.3,0,16.5,0,24.8,0c3.1,0,6.2-0.1,9.3,0c2.6,0.1,5.2,0.2,7.9-0.1c3.9-0.4,8.6-1.3,11.4-4.2
			c2.8-2.9,2.4-7.8-0.8-10.3c-3.5-2.8-9.8-3.1-12.8,0.7c-2.3,2.8-2.6,6.9,0.7,9.1c2,1.3,5.3,0.9,7.3,0c2.4-1.1,5.6-5.1,2.9-7.5
			c-1.2-1.1-3.5-1.4-5.1-1.1c-2.7,0.6-4.7,2.7-3.5,5.4c0.3,0.7,1.4,0.1,1.1-0.6c-0.7-1.7,0.5-2.8,2-3.4c0.3-0.1,0.6-0.2,0.9-0.3
			c-0.3,0.1,0.3,0,0.5,0c1,0,2.2,0.1,3.1,0.7c1.6,1.1,0.4,3.3-0.6,4.3c-1.2,1.3-2.9,1.8-4.6,1.9c-0.8,0-1.9,0.1-2.7-0.2
			c-2.1-0.8-2.8-3.1-2.2-5.1c0.7-2.3,2.3-3.8,4.6-4.5c4.5-1.3,10.7,1.7,9.9,7c-0.7,4.4-6.3,5.9-10,6.5c-3.4,0.6-6.7,0.4-10.2,0.4
			c-3.8-0.1-7.7,0-11.5,0c-8.3,0-16.6,0-24.9,0c-11.3,0-22.6,0-33.9,0c-12.8,0-25.6,0-38.4,0c-12.9,0-25.7,0-38.6,0
			c-11.4,0-22.8,0-34.3,0c-8.5,0-17,0-25.5,0c-4.1,0-8.3,0-12.4,0c-0.2,0-0.4,0-0.5,0C184.2,208.7,184.2,210,185,210L185,210z"/>
	</g>
</g>
<g>
	<g>
		<path class="st3" d="M403.7,213.8c-2.9,0-5.7,0-8.6,0c-7.6,0-15.2,0-22.8,0c-10.9,0-21.7,0-32.6,0c-12.6,0-25.3,0-37.9,0
			c-13,0-25.9,0-38.9,0c-11.8,0-23.6,0-35.4,0c-9.2,0-18.3,0-27.5,0c-5.1,0-10.1,0-15.2,0c-0.8,0-1.6,0-2.4,0.1
			c-3.2,0.2-6.6,0.1-9.7-0.5c-3.7-0.7-9.2-2.4-9.5-6.9c-0.3-5.2,6-7.9,10.3-6.4c2.2,0.8,3.8,2.5,4.3,4.8c0.4,1.9-0.5,4-2.4,4.7
			c-0.9,0.3-2,0.3-2.9,0.2c-1.8-0.1-3.6-0.8-4.7-2.3c-0.9-1.1-1.8-3.1-0.2-4c0.9-0.5,2-0.6,3.1-0.6c0.2,0,0.6,0,0.3,0
			c0.4,0.1,0.8,0.2,1.1,0.3c1.5,0.6,2.6,1.6,1.9,3.3c-0.3,0.7,0.8,1.4,1.1,0.6c2.1-5-5.7-7.1-8.7-4.2c-2.6,2.5,0.9,6.5,3.3,7.5
			c2.2,0.9,5.4,1.1,7.5-0.4c3-2.2,2.4-6.3,0.2-8.9c-3.2-3.7-9.8-3.3-13.2-0.1c-2.9,2.7-3,7.5,0,10.2c3.1,2.7,7.6,3.6,11.5,3.9
			c4.2,0.4,8.6,0.1,12.9,0.1c7.2,0,14.4,0,21.6,0c11.1,0,22.2,0,33.2,0c13.3,0,26.5,0,39.8,0c13.6,0,27.2,0,40.8,0
			c12.4,0,24.8,0,37.2,0c9.3,0,18.6,0,27.9,0c4.6,0,9.2,0,13.8,0c0.2,0,0.4,0,0.6,0C404.5,215,404.5,213.8,403.7,213.8L403.7,213.8z
			"/>
	</g>
</g>
<g>
	<g>
		<path class="st3" d="M178,573.7v-0.6c2.3-0.1,2.5-0.3,2.5-1.8v-8.1c0-1.1-0.1-1.1-1.1-1.2l-1-0.1v-0.5c1.4-0.2,2.8-0.6,3.8-1v10.9
			c0,1.6,0.1,1.7,2.5,1.8v0.6H178z"/>
		<path class="st3" d="M191.6,560.3c2,0,3.4,1.4,3.4,3.1c0,0.6-0.2,1.2-0.6,1.7c-0.2,0.2-0.8,0.7-1.7,1.3c1.4,0.8,2.9,1.8,2.9,3.6
			c0,2.5-2.2,3.8-4.2,3.8c-2.3,0-4.1-1.3-4.1-3.5c0-1.1,0.5-1.7,1-2.1c0.3-0.3,1.2-0.8,1.9-1.3c-1.4-0.8-2.3-1.8-2.3-3.3
			C187.8,561.9,189.3,560.3,191.6,560.3z M191.6,573.2c1.4,0,2.3-0.9,2.3-2.5c0-1.7-1.4-2.5-3.1-3.3c-1.1,0.7-1.8,1.6-1.8,2.9
			C189,572.2,190.2,573.2,191.6,573.2z M191.3,561c-1.3,0-1.9,1-1.9,2.2c0,1.5,1,2.1,2.7,3c0.8-0.6,1.4-1.4,1.4-2.6
			C193.4,561.8,192.4,561,191.3,561z"/>
		<path class="st3" d="M206.1,560.9c-2,4.3-4,8.5-6,12.8l-1.5,0.1l-0.1-0.2c2.2-3.5,4.5-7.9,6.2-11.5h-4.5c-1.4,0-1.4,0.2-2,1.6
			h-0.7c0.2-1.2,0.3-2.2,0.4-3.1h8.1L206.1,560.9z"/>
		<path class="st3" d="M211.9,560.3c2,0,3.4,1.4,3.4,3.1c0,0.6-0.2,1.2-0.6,1.7c-0.2,0.2-0.8,0.7-1.7,1.3c1.4,0.8,2.9,1.8,2.9,3.6
			c0,2.5-2.2,3.8-4.2,3.8c-2.3,0-4.1-1.3-4.1-3.5c0-1.1,0.5-1.7,1-2.1c0.3-0.3,1.2-0.8,1.9-1.3c-1.4-0.8-2.3-1.8-2.3-3.3
			C208.2,561.9,209.6,560.3,211.9,560.3z M211.9,573.2c1.4,0,2.3-0.9,2.3-2.5c0-1.7-1.4-2.5-3.1-3.3c-1.1,0.7-1.8,1.6-1.8,2.9
			C209.3,572.2,210.5,573.2,211.9,573.2z M211.7,561c-1.3,0-1.9,1-1.9,2.2c0,1.5,1,2.1,2.7,3c0.8-0.6,1.4-1.4,1.4-2.6
			C213.8,561.8,212.8,561,211.7,561z"/>
	</g>
</g>
<rect x="1059.8" y="806.7" style="fill:none;" width="5.6" height="2.3"/>
<g>
	<g>
		<path class="st3" d="M392.7,436.2c0-0.2,0-0.3-0.1-0.5c1.1-0.3,1.2-0.5,0.9-1.1c-0.3-0.6-0.8-1.5-1.3-2.6
			c-1.5,0.2-2.3,0.3-3.9,0.5c-0.2,0.8-0.3,1.6-0.5,2.3c-0.2,1.2,0,1.3,1.5,1.3c0,0.2,0,0.3,0.1,0.5c-1.6,0.2-2.5,0.3-4.1,0.6
			c0-0.2,0-0.3-0.1-0.5c1.1-0.3,1.4-0.5,1.8-2.2c1-4,1.4-5.9,2.4-9.9c0.2-0.1,0.3-0.1,0.6-0.2c1.5,2.9,3.2,6.1,4.8,9
			c0.8,1.5,1,1.6,2.3,1.6c0,0.2,0,0.3,0.1,0.5C395.4,435.9,394.5,436,392.7,436.2z M389.6,427c-0.4,1.6-0.7,3.3-1.1,4.8
			c1.3-0.2,2-0.3,3.3-0.5C391,429.6,390.5,428.7,389.6,427z"/>
		<path class="st3" d="M397.7,435.5c0-0.2,0-0.3-0.1-0.5c1.1-0.3,1.3-0.4,1.1-1.6c-0.5-3.4-0.7-5.1-1.2-8.5
			c-0.2-1.1-0.3-1.2-1.4-1.2c0-0.2,0-0.3-0.1-0.5c0.9-0.2,2-0.7,2.6-1c0.1,0.8,0.2,1.7,0.4,2.5c0.5,3.4,0.7,5.1,1.2,8.4
			c0.2,1.2,0.3,1.3,1.5,1.2c0,0.2,0,0.3,0.1,0.5C400.1,435.2,399.3,435.3,397.7,435.5z"/>
		<path class="st3" d="M409.1,432.3c-0.6,1.1-1.7,2.1-2.8,2.2c-2.3,0.3-3.9-1.3-4.1-3.2c-0.2-1.4,0.3-2.7,1.3-3.7
			c0.8-0.9,1.9-1.3,2.6-1.4c0.8-0.1,1.4,0.1,1.7,0.3c0.3,0.2,0.3,0.3,0.4,0.5c0.1,0.4-0.3,0.9-0.5,0.9c-0.1,0-0.2,0-0.4-0.1
			c-0.6-0.4-1.3-0.6-1.9-0.5c-1.2,0.2-2.1,1.3-1.8,3.2c0.3,2.5,2.1,3.1,3.2,2.9c0.7-0.1,1.3-0.4,2-1.3
			C408.8,432.1,408.9,432.2,409.1,432.3z"/>
		<path class="st3" d="M416.5,426.1c0.3-0.2,0.7-0.4,1.1-0.5c1.9-0.3,3.4,1,3.7,2.9c0.3,2.1-1,4.2-3.1,4.5c-2.1,0.3-4-1.2-4.3-3.9
			c-0.5-3.7,2-6.4,4-7.4c0.4-0.2,1.2-0.5,2-0.7c0.1,0.2,0.1,0.3,0.2,0.6c-0.6,0.2-1.4,0.6-1.9,0.9c-1,0.7-2.5,2.1-2.7,4.6
			C415.8,426.5,416.1,426.4,416.5,426.1z M417,426.7c-0.7,0.1-1.3,0.5-1.7,0.7c0,0.3,0,0.8,0.1,1.2c0.3,2.2,1.4,3.8,2.9,3.5
			c1.4-0.2,1.6-1.7,1.4-2.9C419.6,427.8,418.7,426.5,417,426.7z"/>
		<path class="st3" d="M424.3,432.1c-0.6,0.1-1.2-0.3-1.2-1c-0.1-0.6,0.3-1.2,0.9-1.3c0.6-0.1,1.2,0.3,1.3,1
			C425.4,431.5,425,432,424.3,432.1z"/>
		<path class="st3" d="M432,419.5c0.1,0.1,0.1,0.1,0.1,0.1c-0.1,0.5-0.2,0.7-0.3,1.2c-1.6,0.2-2.5,0.3-4.1,0.6c0,1-0.1,2.4-0.1,3.3
			c0.6-0.3,1.6-0.7,2-0.8c2.2-0.3,3.6,1.1,3.8,2.6c0.1,1.1-0.2,2.2-1.1,3.2c-0.9,0.9-2,1.6-3,1.7c-0.8,0.1-1.5-0.1-2-0.4
			c-0.3-0.2-0.4-0.3-0.4-0.6c0-0.1,0.1-0.4,0.3-0.7c0.1-0.1,0.3-0.2,0.5-0.1c0.6,0.4,1.3,0.8,2.4,0.7c1.5-0.2,2-1.6,1.8-2.9
			c-0.2-1.6-1.3-2.6-3.3-2.3c-0.7,0.1-1.3,0.3-1.7,0.6c0,0,0,0-0.1-0.1c0.1-1.4,0.1-4,0.1-5.5C429,419.9,430,419.7,432,419.5z"/>
		<path class="st3" d="M436.8,418.6c1.9-0.3,2.9,1.4,3.1,2.9c0.2,1.5-0.3,3.4-2.2,3.6s-2.9-1.4-3.1-2.9
			C434.4,420.8,434.9,418.8,436.8,418.6z M436.9,419.1c-1.1,0.2-1.1,1.9-0.9,2.9c0.1,1,0.6,2.7,1.7,2.5c1.1-0.2,1-2,0.9-2.9
			C438.4,420.7,438,419,436.9,419.1z M438.8,430.2c-0.3-0.1-0.4-0.2-0.6-0.3c2.3-4.9,3.4-7.4,5.7-12.3c0.3,0.1,0.4,0.2,0.7,0.3
			C442.2,422.8,441,425.3,438.8,430.2z M444.9,422.5c1.9-0.3,2.9,1.4,3.1,2.9c0.2,1.5-0.3,3.4-2.2,3.7c-1.9,0.3-2.9-1.4-3.1-2.9
			C442.5,424.7,443.1,422.8,444.9,422.5z M445,423.1c-1.1,0.1-1.1,1.9-0.9,2.9c0.1,1,0.6,2.7,1.7,2.5c1.1-0.2,1-1.9,0.9-2.9
			C446.5,424.6,446.1,422.9,445,423.1z"/>
		<path class="st3" d="M460.9,419.3c-0.9,0.3-1.1,0.4-1.4,1.6c-0.4,1.5-1.1,4-1.7,6.6c-0.2,0-0.3,0-0.5,0.1c-1-1.9-2.2-3.9-3.3-5.9
			c-0.6-1-0.7-1.1-1.7-1.1c0-0.2,0-0.3-0.1-0.5c1.5-0.2,2.2-0.3,3.6-0.5c0,0.2,0,0.3,0.1,0.5c-1,0.3-1,0.4-0.6,1.1
			c0.6,1.2,1.6,3,2.3,4.1c0.4-1.7,0.8-3.2,1-4.4c0.2-0.9,0.1-1.1-1.1-1.1c0-0.2,0-0.3-0.1-0.5c1.3-0.2,1.9-0.3,3.2-0.5
			C460.8,419,460.8,419.1,460.9,419.3z"/>
		<path class="st3" d="M465.1,418c2.2-0.3,4.1,1.2,4.4,3.5c0.4,2.9-1.5,4.6-3.3,4.8c-2.5,0.3-4.2-1.4-4.5-3.4
			C461.4,419.9,463.4,418.2,465.1,418z M465,418.6c-1.1,0.2-1.9,1.3-1.6,3.4c0.3,2.3,1.5,3.8,3,3.6c1.1-0.2,1.9-1.1,1.6-3.5
			C467.7,420,466.6,418.4,465,418.6z"/>
		<path class="st3" d="M471.1,425.3c0-0.2,0-0.3-0.1-0.5c1.1-0.3,1.3-0.4,1.1-1.6c-0.5-3.4-0.7-5.1-1.2-8.5
			c-0.2-1.1-0.3-1.2-1.4-1.2c0-0.2,0-0.3-0.1-0.5c0.9-0.2,2-0.7,2.6-1c0.1,0.8,0.2,1.7,0.4,2.5c0.5,3.4,0.7,5.1,1.2,8.4
			c0.2,1.2,0.3,1.3,1.5,1.2c0,0.2,0,0.3,0.1,0.5C473.5,425,472.7,425.1,471.1,425.3z"/>
	</g>
</g>
<g>
	<polygon class="st12" points="242.5,533.1 302.7,578.6 273.7,587 238.8,556.3 250.2,554.9 	"/>
	<path class="st13" d="M242.5,533.1l21.4,6.5l5.3-10.5l13.7,19.4c0,0,0.5,0.3,2-0.2c1.5-0.6,17.7,30.2,17.7,30.2L242.5,533.1z"/>
	<path class="st12" d="M284.9,548.4c0,0,1.1,0.1,1.2-2.6c0.1-2.7-5.3-34.3-5.3-34.3l12,3.2l8.7-21c0,0,0.6-1.6,1.2-1.2
		c0.6,0.4,0,86.1,0,86.1L284.9,548.4z"/>
	<path class="st14" d="M322.4,548.6c0,0-2.8-0.1-2.9-2.8c-0.1-2.7,5.3-34.3,5.3-34.3l-12,3.2l-8.7-21c0,0-0.9-1.6-1.5-1.2
		c-0.6,0.4,0,86.1,0,86.1L322.4,548.6z"/>
	<path class="st12" d="M362.9,533.1l-21.4,6.5l-5.3-10.5l-13.7,19.4c0,0-5.7,21.1-7.2,20.5c-1.5-0.6-12.5,9.5-12.5,9.5L362.9,533.1z
		"/>
	<polygon class="st14" points="362.9,533.1 355.3,555.8 368.5,555.8 333.4,587.6 336.9,597.2 302.7,578.6 	"/>
	<polygon class="st12" points="306.2,592 336.9,597.2 302.7,578.6 	"/>
	<polygon class="st12" points="273.7,587 268.4,597.2 302.7,578.6 	"/>
	<polygon class="st14" points="268.4,597.2 299.2,592.3 302.7,578.6 	"/>
	<polygon class="st12" points="299.2,592.3 298.5,621.7 302.7,621.7 302.7,578.6 	"/>
	<polygon class="st14" points="306.2,592 302.7,578.6 302.7,621.7 306.9,621.7 	"/>
	<polygon class="st12" points="322.4,548.6 302.7,578.6 318.4,566.7 	"/>
</g>
<g>
	<g>
		<path class="st3" d="M202.4,625.9c3.9,2.1,6,6.7,3.9,11c-2.3,4.6-7.4,5.7-11.9,3.2c-4.7-2.6-6.3-7.7-3.9-11.5
			C192.8,624.9,197.7,623.2,202.4,625.9z M201.6,626.4c-2.5-1.4-6-0.8-8.3,3c-2.3,3.8-1.5,8.1,2,10c3,1.6,6.2,0.8,8.3-3.3
			C205.9,631.7,204.5,628,201.6,626.4z"/>
		<path class="st3" d="M228,638.7c-1.6-0.4-2.2-0.4-2.7,0.6c-0.3,0.7-0.7,1.6-1.5,3.7c-1.4,3.6-2.1,5.4-3.5,9
			c-0.4-0.2-0.6-0.2-1-0.4c-2.6-6.4-3.7-9.6-5.7-16c-1,2.2-1.5,3.3-2.5,5.5c-0.9,2-1.3,3-1.5,3.6c-0.4,1.1,0,1.8,1.8,2.7
			c-0.1,0.2-0.2,0.4-0.3,0.6c-2.5-1.1-3.7-1.7-6.1-2.8c0.1-0.2,0.2-0.4,0.3-0.6c1.6,0.6,2.4,0.6,3-0.4c0.4-0.7,0.9-1.6,1.8-3.6
			c1-2.2,1.5-3.3,2.6-5.6c0.3-0.6,0.4-1,0.2-1.7c-0.2-0.7-0.6-1.1-1.7-1.8c0.1-0.2,0.2-0.4,0.3-0.6c1.4,0.7,2.1,1,3.5,1.6
			c1.9,6.2,3.1,9.3,5.6,15.5c0.9-2.2,1.3-3.3,2.2-5.5c0.8-2.1,1.1-3.1,1.3-3.8c0.3-1-0.1-1.6-2-2.4c0.1-0.2,0.2-0.4,0.3-0.6
			c2.3,1,3.5,1.4,5.9,2.3C228.1,638.3,228.1,638.4,228,638.7z"/>
		<path class="st3" d="M242,646.6c0-0.8-0.1-1.6-0.2-2.1c-0.2-0.7-0.4-1-1.8-1.4c-1-0.3-1.5-0.4-2.4-0.8c-1.4,4.5-2.1,6.7-3.5,11.1
			c-0.6,1.8-0.4,2.1,2,3c-0.1,0.3-0.1,0.4-0.2,0.6c-3-0.9-4.6-1.4-7.6-2.4c0.1-0.3,0.1-0.4,0.2-0.6c2.5,0.7,2.7,0.5,3.3-1.3
			c1.5-4.4,2.2-6.7,3.6-11.1c-0.9-0.3-1.3-0.4-2.2-0.7c-1.3-0.5-1.8-0.5-2.4,0.1c-0.5,0.3-0.8,0.8-1.5,1.5c-0.3-0.1-0.4-0.2-0.7-0.3
			c0.6-1.3,1.3-2.7,1.8-3.9c0.2,0.1,0.3,0.1,0.5,0.2c0.2,0.7,0.4,0.7,1.1,1c3.8,1.3,5.7,1.9,9.6,3.1c0.7,0.2,0.9,0.2,1.4-0.2
			c0.2,0.1,0.3,0.1,0.6,0.2c-0.3,1.1-0.7,2.8-0.9,4.2C242.5,646.6,242.3,646.6,242,646.6z"/>
		<path class="st3" d="M249.2,660.6c0.1-0.3,0.1-0.4,0.2-0.7c1.8,0.2,2,0,1.9-1c-0.2-1-0.4-2.3-0.6-3.9c-2.2-0.5-3.3-0.8-5.6-1.4
			c-0.7,0.9-1.3,1.7-1.9,2.6c-1,1.4-0.7,1.6,1.4,2.4c-0.1,0.3-0.1,0.4-0.2,0.7c-2.4-0.6-3.7-1-6.1-1.7c0.1-0.3,0.1-0.4,0.2-0.6
			c1.7,0.3,2.2,0.2,3.7-1.6c3.5-4.3,5.2-6.4,8.4-10.8c0.3,0,0.5,0,0.8,0.1c0.6,4.4,1.3,9.2,2.1,13.6c0.4,2.2,0.6,2.5,2.5,3
			c-0.1,0.3-0.1,0.4-0.1,0.7C253.1,661.5,251.8,661.2,249.2,660.6z M249.6,647.6c-1.3,1.8-2.7,3.7-3.9,5.3c1.9,0.5,2.9,0.7,4.8,1.2
			C250.1,651.5,249.9,650.2,249.6,647.6z"/>
		<path class="st3" d="M272.7,664.9c-0.4,0-0.6-0.1-1-0.2c-2-0.4-2.9-1-3.9-2.6c-0.8-1.3-1.5-3-2.2-4.3c-0.4-0.8-0.7-1-2-1.3
			c-0.4-0.1-0.5-0.1-0.9-0.2c-0.3,1.5-0.4,2.2-0.6,3.7c-0.3,2-0.1,2.2,2,2.7c0,0.3-0.1,0.4-0.1,0.7c-2.9-0.5-4.3-0.7-7.1-1.3
			c0.1-0.3,0.1-0.4,0.1-0.7c2.2,0.2,2.5,0.1,2.8-1.9c0.7-3.8,1-5.7,1.7-9.4c0.4-2,0.1-2.1-1.8-2.7c0.1-0.3,0.1-0.4,0.1-0.7
			c2.5,0.5,3.8,0.7,6.3,1.1c1.8,0.3,3,0.7,3.9,1.4c0.9,0.8,1.5,1.9,1.3,3.4c-0.3,2-1.9,3.1-3.9,3.6c0.4,0.8,1.2,2.6,1.9,3.7
			c0.8,1.4,1.2,2.1,1.8,2.7c0.6,0.8,1.2,1.1,1.8,1.3C272.8,664.5,272.8,664.7,272.7,664.9z M264,655.8c1.3,0.2,2.2,0.2,2.9-0.2
			c1.1-0.5,1.7-1.4,1.8-2.7c0.4-2.5-1.3-3.7-3.2-4c-0.7-0.1-1.2-0.1-1.4,0c-0.2,0.1-0.4,0.4-0.5,1c-0.4,2.3-0.6,3.5-1,5.8
			C263.3,655.7,263.5,655.8,264,655.8z"/>
		<path class="st3" d="M273.8,664.9c0-0.3,0-0.4,0.1-0.7c2.2,0,2.4-0.1,2.7-2.1c0.4-3.8,0.6-5.7,1-9.5c0.2-2.1,0-2.2-2-2.6
			c0-0.3,0-0.4,0.1-0.7c2.7,0.3,4,0.4,6.7,0.6c0,0.3,0,0.4-0.1,0.7c-2.1,0.1-2.3,0.1-2.5,2.2c-0.3,3.8-0.5,5.7-0.9,9.5
			c-0.2,2.1,0,2.2,2.2,2.5c0,0.3,0,0.4-0.1,0.7C278.1,665.3,276.6,665.2,273.8,664.9z"/>
		<path class="st3" d="M293.1,650.2c4.3,0.1,8.2,3.2,8.3,7.9c0.1,5.2-3.8,8.5-8.8,8.3c-5.2-0.1-8.8-3.9-8.5-8.4
			C284.3,653.8,287.8,650.1,293.1,650.2z M292.5,651.1c-2.8-0.1-5.5,2-5.7,6.5c-0.2,4.5,2.3,7.9,6.2,8c3.3,0.1,5.7-2.1,5.7-6.7
			C298.6,653.8,295.8,651.2,292.5,651.1z"/>
		<path class="st3" d="M325.9,660.5c-0.2,1.2-0.7,3-1,3.8c-0.8,0.2-2.8,0.9-4.9,1.1c-6.4,0.7-10-3-10.2-7.2c-0.3-4.9,3.4-8.5,9-9.1
			c2.1-0.2,4.6-0.2,4.8,0c0.3,0.3,0.6,2.5,1,3.6c-0.3,0.1-0.5,0.2-0.8,0.3c-0.7-1.5-1.4-2.4-2.8-2.8c-0.7-0.2-1.7-0.3-2.7-0.2
			c-4.1,0.4-6.1,3.5-5.8,7.4c0.3,4.6,3.2,7.4,7.6,7c2.7-0.3,4-1.6,5-4.1C325.4,660.4,325.6,660.4,325.9,660.5z"/>
		<path class="st3" d="M339,662.2c-0.1-0.3-0.1-0.4-0.1-0.7c1.7-0.5,1.8-0.8,1.3-1.6c-0.5-0.8-1.3-1.9-2.1-3.3
			c-2.2,0.4-3.4,0.6-5.6,1c-0.2,1.1-0.5,2.1-0.7,3.2c-0.3,1.6,0.1,1.8,2.3,1.6c0,0.3,0.1,0.4,0.1,0.7c-2.5,0.4-3.7,0.6-6.2,1
			c0-0.3-0.1-0.4-0.1-0.7c1.7-0.4,2.1-0.7,2.7-2.9c1.4-5.3,2-8,3.2-13.3c0.3-0.1,0.5-0.2,0.8-0.3c2.3,3.7,5,7.8,7.5,11.5
			c1.3,1.9,1.6,2,3.5,1.8c0.1,0.3,0.1,0.4,0.2,0.7C343,661.4,341.7,661.7,339,662.2z M334.1,650.1c-0.4,2.2-0.9,4.5-1.4,6.5
			c1.9-0.3,2.9-0.5,4.8-0.9C336.1,653.5,335.4,652.3,334.1,650.1z"/>
		<path class="st3" d="M360.1,641.2c-1.5,0.7-1.9,1.1-1.7,2.1c0.2,0.7,0.5,1.7,1.1,3.8c1.2,3.7,1.7,5.5,2.9,9.2
			c-0.4,0.1-0.6,0.2-1,0.3c-6-3.4-8.8-5.2-14.3-9c0.6,2.3,0.9,3.5,1.5,5.8c0.5,2.1,0.9,3.1,1.1,3.8c0.4,1.1,1.1,1.4,3,1
			c0.1,0.3,0.1,0.4,0.2,0.6c-2.6,0.7-3.8,1-6.4,1.6c-0.1-0.3-0.1-0.4-0.2-0.7c1.6-0.5,2.1-1,2-2.2c-0.1-0.8-0.3-1.8-0.8-3.9
			c-0.6-2.4-0.9-3.6-1.5-5.9c-0.2-0.7-0.3-1-0.9-1.4c-0.6-0.4-1.2-0.5-2.4-0.3c-0.1-0.3-0.1-0.4-0.2-0.7c1.5-0.3,2.2-0.5,3.7-0.9
			c5.3,3.6,8.1,5.4,13.9,8.6c-0.7-2.2-1-3.4-1.7-5.6c-0.7-2.1-1-3.1-1.3-3.8c-0.4-1-1-1.1-3-0.7c-0.1-0.3-0.1-0.4-0.2-0.6
			c2.4-0.7,3.6-1.1,6-1.9C360,640.9,360,641,360.1,641.2z"/>
		<path class="st3" d="M375.6,651.5c-0.1-0.3-0.1-0.4-0.2-0.6c1.6-0.8,1.7-1.1,1-1.8c-0.7-0.7-1.6-1.7-2.7-2.9
			c-2.1,0.8-3.2,1.2-5.4,2c0,1.2-0.1,2.2-0.1,3.2c0,1.7,0.4,1.7,2.6,1.2c0.1,0.3,0.1,0.4,0.2,0.6c-2.4,0.9-3.6,1.3-6,2.1
			c-0.1-0.3-0.1-0.4-0.2-0.6c1.6-0.7,1.9-1,2.1-3.4c0.5-5.5,0.6-8.2,0.8-13.7c0.3-0.2,0.4-0.3,0.7-0.4c3,3.3,6.3,6.8,9.5,10
			c1.6,1.6,1.9,1.7,3.8,1.1c0.1,0.2,0.2,0.4,0.3,0.6C379.4,650,378.2,650.5,375.6,651.5z M368.6,640.5c0,2.2-0.1,4.6-0.2,6.6
			c1.9-0.7,2.8-1,4.6-1.7C371.2,643.5,370.3,642.5,368.6,640.5z"/>
		<path class="st3" d="M383.2,631.2c3.3-1.6,5.6-2,7.7-1.5c1.7,0.4,3.3,1.5,4.4,3.5c1.3,2.5,1.3,5.1,0,7.3c-1.2,2.2-3.4,3.9-6.5,5.3
			c-2.3,1.1-3.5,1.6-5.9,2.7c-0.1-0.2-0.2-0.4-0.3-0.6c2.1-1.1,2.1-1.3,1.3-3.1c-1.6-3.5-2.3-5.2-3.9-8.7c-0.8-1.9-1.2-1.8-3.1-1.2
			c-0.1-0.2-0.2-0.4-0.3-0.6C379.3,633.1,380.6,632.5,383.2,631.2z M386.1,643.6c0.8,1.6,1.8,1.7,3.6,0.8c4.5-2.1,5.3-6,3.4-9.7
			c-1.2-2.3-3-3.6-5.3-3.7c-1.4-0.1-2.8,0.3-4.4,1.1c-1,0.5-1.5,0.9-1.7,1.2c-0.1,0.2-0.1,0.5,0.3,1.4
			C383.6,638.2,384.4,640,386.1,643.6z"/>
		<path class="st3" d="M410,634.4c-0.1-0.2-0.2-0.3-0.4-0.6c1.4-1.1,1.5-1.4,0.7-2c-0.8-0.6-1.9-1.3-3.2-2.3c-2,1.2-3,1.8-5,3
			c0.2,1.2,0.3,2.2,0.4,3.2c0.2,1.7,0.7,1.6,2.8,0.7c0.1,0.2,0.2,0.3,0.3,0.6c-2.2,1.3-3.3,1.9-5.6,3.2c-0.1-0.2-0.2-0.4-0.3-0.6
			c1.4-1,1.8-1.4,1.5-3.7c-0.5-5.5-0.8-8.2-1.6-13.7c0.3-0.2,0.4-0.3,0.6-0.6c3.5,2.7,7.5,5.5,11.2,8.1c1.9,1.3,2.2,1.3,4,0.4
			c0.1,0.2,0.2,0.3,0.4,0.6C413.5,632.2,412.4,632.9,410,634.4z M401,624.8c0.3,2.2,0.7,4.5,0.9,6.6c1.7-1,2.6-1.5,4.3-2.6
			C404.2,627.2,403.1,626.4,401,624.8z"/>
	</g>
</g>
<g>
	<g>
		<path class="st3" d="M393,573.7v-0.6c2.3-0.1,2.5-0.3,2.5-1.8v-8.1c0-1.1-0.1-1.1-1.1-1.2l-1-0.1v-0.5c1.4-0.2,2.8-0.6,3.8-1v10.9
			c0,1.6,0.1,1.7,2.5,1.8v0.6H393z"/>
		<path class="st3" d="M406.5,560.3c2,0,3.4,1.4,3.4,3.1c0,0.6-0.2,1.2-0.6,1.7c-0.2,0.2-0.8,0.7-1.7,1.3c1.4,0.8,2.9,1.8,2.9,3.6
			c0,2.5-2.2,3.8-4.2,3.8c-2.3,0-4.1-1.3-4.1-3.5c0-1.1,0.5-1.7,1-2.1c0.3-0.3,1.2-0.8,1.9-1.3c-1.4-0.8-2.3-1.8-2.3-3.3
			C402.8,561.9,404.2,560.3,406.5,560.3z M406.5,573.2c1.4,0,2.3-0.9,2.3-2.5c0-1.7-1.4-2.5-3.1-3.3c-1.1,0.7-1.8,1.6-1.8,2.9
			C403.9,572.2,405.1,573.2,406.5,573.2z M406.3,561c-1.3,0-1.9,1-1.9,2.2c0,1.5,1,2.1,2.7,3c0.8-0.6,1.4-1.4,1.4-2.6
			C408.4,561.8,407.4,561,406.3,561z"/>
		<path class="st3" d="M421.1,560.9c-2,4.3-4,8.5-6,12.8l-1.5,0.1l-0.1-0.2c2.2-3.5,4.5-7.9,6.2-11.5h-4.5c-1.4,0-1.4,0.2-2,1.6
			h-0.7c0.2-1.2,0.3-2.2,0.4-3.1h8.1L421.1,560.9z"/>
		<path class="st3" d="M426.9,560.3c2,0,3.4,1.4,3.4,3.1c0,0.6-0.2,1.2-0.6,1.7c-0.2,0.2-0.8,0.7-1.7,1.3c1.4,0.8,2.9,1.8,2.9,3.6
			c0,2.5-2.2,3.8-4.2,3.8c-2.3,0-4.1-1.3-4.1-3.5c0-1.1,0.5-1.7,1-2.1c0.3-0.3,1.2-0.8,1.9-1.3c-1.4-0.8-2.3-1.8-2.3-3.3
			C423.1,561.9,424.6,560.3,426.9,560.3z M426.9,573.2c1.4,0,2.3-0.9,2.3-2.5c0-1.7-1.4-2.5-3.1-3.3c-1.1,0.7-1.8,1.6-1.8,2.9
			C424.3,572.2,425.5,573.2,426.9,573.2z M426.6,561c-1.3,0-1.9,1-1.9,2.2c0,1.5,1,2.1,2.7,3c0.8-0.6,1.4-1.4,1.4-2.6
			C428.8,561.8,427.7,561,426.6,561z"/>
	</g>
</g>
</svg>
