<?xml version="1.0" encoding="utf-8"?>
<!-- Generator: Adobe Illustrator 26.0.3, SVG Export Plug-In . SVG Version: 6.00 Build 0)  -->
<svg version="1.1" id="Layer_1" xmlns="http://www.w3.org/2000/svg" xmlns:xlink="http://www.w3.org/1999/xlink" x="0px" y="0px"
	 viewBox="0 0 500 500" style="enable-background:new 0 0 500 500;" xml:space="preserve">
<style type="text/css">
	.st0{display:none;fill:none;stroke:#010202;stroke-miterlimit:10;}
	.st1{fill:#2C61AB;}
	.st2{fill:none;stroke:#FFFFFF;stroke-width:0.5;stroke-miterlimit:10;}
	.st3{display:none;}
	.st4{fill:none;stroke:#DADADA;stroke-miterlimit:10;}
	.st5{fill:#BA1C1C;}
	.st6{fill:#FFFFFF;}
</style>
<g id="logo">
	<g>
		
			<image style="overflow:visible;enable-background:new    ;" width="3258" height="2417" xlink:href="../../../../3) 3035 - TUE - desgin n images 2 /21A257D105FA70B1.png"  transform="matrix(0.1524 0 0 0.1524 7.5871 65.7699)">
		</image>
		<g>
			<g>
				<path class="st0" d="M122,319.8c0,0,48.7-65.5,264.5-86.8"/>
				<path class="st1" d="M104.1,193.3c0,0,158.3-65.7,296.2-15.9v54.4c0,0-223.5,9.1-296.2,106.4L104.1,193.3L104.1,193.3z"/>
				<g>
					
						<image style="overflow:visible;enable-background:new    ;" width="2242" height="1388" xlink:href="../../../../3) 3035 - TUE - desgin n images 2 /21A257D105FA70B3.png"  transform="matrix(0.1526 0 0 0.1526 81.0481 140.9029)">
					</image>
				</g>
				<path class="st2" d="M103.8,339.2V193.1l0.2-0.1c0.4-0.2,40.3-16.6,96.4-26.7c33-5.9,65.1-8.6,95.4-7.8
					c37.9,0.9,73,7.2,104.6,18.6l0.2,0.1v54.9h-0.3c-0.6,0-56.6,2.5-120.8,16.7c-37.7,8.4-70.8,19.2-98.3,32
					c-34.4,16.1-60.3,35.4-76.8,57.6L103.8,339.2z M104.4,193.5v143.8c16.6-21.9,42.4-41.2,76.5-57.1c27.6-12.9,60.8-23.6,98.4-32.1
					c61.8-13.7,116-16.5,120.6-16.7v-53.8c-31.4-11.3-66.4-17.5-104.2-18.5c-30.3-0.8-62.3,1.9-95.3,7.8
					C146.4,176.7,107.5,192.3,104.4,193.5z"/>
				<g class="st3">
					
						<image style="display:inline;overflow:visible;enable-background:new    ;" width="2271" height="1450" xlink:href="../../../../3) 3035 - TUE - desgin n images 2 /21A257D105FA70B6.png"  transform="matrix(0.1526 0 0 0.1526 78.8432 138.4456)">
					</image>
				</g>
				<g>
					
						<image style="overflow:visible;opacity:0.87;enable-background:new    ;" width="2088" height="888" xlink:href="../../../../3) 3035 - TUE - desgin n images 2 /21A257D105FA70B7.png"  transform="matrix(0.1516 0 0 0.1516 95.6967 209.09)">
					</image>
					<g>
						<path class="st4" d="M122.5,320.2l-1-0.8c0.1-0.2,12.7-16.7,51.6-35.6c64.8-31.5,151.8-45.4,213.3-51.4l0.1,1.3
							c-61.4,6.1-148.2,19.9-212.8,51.2C135.1,303.7,122.6,320.1,122.5,320.2z"/>
					</g>
				</g>
			</g>
		</g>
	</g>
	<g>
		<g>
			<path class="st5" d="M169.5,214c1.8,12,3,24.5,6.5,36.1c0.1,0.1-0.1,0.3-0.3,0.4c-4,1.6-6.1,2.3-10.2,4c-1.1,0.4-2.2,0.3-2.4-0.5
				c-1.4-6.2-2.1-12.5-2.8-18.8c-0.3-2.1-3.1-1.5-3.4,0.8c-1,7.7-2,15.4-3.4,23.1c0,0.1-0.2,0.3-0.4,0.3c-4,1.6-6.1,2.5-10,4.1
				c-0.7,0.3-1.4,0.3-1.6-0.1c-3.3-5.7-4.9-12.1-6.6-18.3c-0.6-2.1-3.4-0.6-3.3,1.8c0.2,6.9,0.3,13.9,0.9,20.9
				c0,0.1-0.1,0.3-0.4,0.4c-4.2,1.8-6.2,2.6-10,4.3c-0.6,0.3-1.1,0.1-1.2-0.4c-0.9-17.3-0.3-34.8-0.1-52.2l0,0c0-1.8,1-3.5,2.3-4
				c10.9-4.6,21.8-9.1,32.8-13.4c0.6-0.2-10.3,7.6-14,10.3c-2.2,1.5-3.4,4.9-2.7,7.6c1.6,6.6,2.5,10.1,4.3,16.6
				c0.6,2.3,3.6,1.1,4-1.4c1.1-8,2.3-16,3.3-24.1c0,0-0.3-2.3,4-5c8.8-5.5,18.4-9.6,28.3-12.3c30-8.4,92.6-17.6,92.6-17.6
				s-35,6.9-51.5,13.3c-17,4.4-33.4,10-49.7,16.6l0,0C174.5,206.2,169.3,208.7,169.5,214L169.5,214z"/>
			<path class="st5" d="M211.6,234.4c-2.9,1.1-4.5,1.6-8.3,3l0,0v-0.1c-0.4-1.3-2.3-1.4-3.3-0.2c-0.4,0.5-0.8,1-1.3,1.4
				c-1.3,1.3-3.2,2.3-5.7,3.2c-3.3,1.3-6.2,1.6-8.7,0.7c-2.5-0.9-4.1-3.2-5-7.4c-1.2-6.1-2.3-12.4-3.3-18.5c-0.3-2,0.8-4.1,2.6-4.7
				c3.4-1,5.1-1.5,8.4-2.5c0.2-0.1,0.4,0.1,0.4,0.3c1.1,6.1,2.3,12.2,3.6,18.2c0.4,2,1.1,3.2,2,3.8c0.9,0.6,2,0.6,3.2,0.1
				c1.3-0.5,2.3-1.4,2.9-2.7c0.6-1.3,0.6-3.4,0-6.3c-1.2-6.1-1.8-9.3-3-15.6c-0.1-0.2,0.1-0.4,0.3-0.4c4.2-1.1,6.3-1.6,10.3-2.6
				c0.2-0.1,0.3,0.1,0.3,0.3c1.4,9.8,2.6,19.7,4.7,29.4C211.7,234.2,211.7,234.4,211.6,234.4z"/>
			<path class="st5" d="M215,225.4c2.5-1.1,6.6-2.6,10.8-4.2l0,0c0.7,1.1,1.5,1.8,2.5,2c1,0.3,2.3,0.1,3.8-0.3
				c1.7-0.4,3-1.1,3.8-1.9c0.6-0.6,0.9-1.2,0.9-1.8c-0.1-0.8-0.6-1.2-1.6-1.4c-0.7-0.1-2.5-0.1-5.5,0.3c-4.5,0.5-7.6,0.8-9.5,0.7
				c-1.8-0.1-3.4-0.6-4.7-1.8c-1.3-1.1-2-2.7-2.1-4.7c-0.2-2.1,0.1-4.1,1.3-5.9c1.1-1.8,2.8-3.4,5-4.6c2.2-1.2,5.2-2.2,8.8-2.8
				c3.9-0.7,6.8-0.9,8.7-0.7c1.9,0.3,3.5,0.8,4.8,1.7c1.3,0.8,2.3,2,3.3,3.6c0.1,0.2,0,0.4-0.3,0.4c-4.4,1.1-6.6,1.8-11.2,3.1l0,0
				c-0.4-0.9-1-1.5-1.8-1.8c-1-0.4-2.3-0.4-3.7-0.2c-1.4,0.3-2.5,0.8-3,1.4c-0.6,0.6-0.9,1.3-0.8,2c0.1,0.8,0.6,1.2,1.4,1.4
				c0.9,0.2,2.7,0.1,5.5-0.3c4.2-0.5,7.3-0.5,9.4-0.2c2.1,0.3,3.7,1.1,4.9,2.1c1.2,1.1,1.9,2.4,2.1,3.8c0.2,1.5-0.2,3-1.1,4.5
				c-0.9,1.6-2.5,3-4.8,4.3c-2.3,1.3-5.5,2.5-9.8,3.8c-6,1.8-10.5,2.7-13.4,2.3C216,230,215.7,228,215,225.4L215,225.4z"/>
			<path class="st5" d="M266.3,220c-4.5,0.7-6.7,1.1-11.3,2c-0.2,0.1-0.3-0.1-0.4-0.2c-0.6-9.3-1-18.6-1.4-27.9
				c0-0.1-0.1-1.4,0.1-1.4c4.7-0.5,7.1-0.7,11.7-1.1c0.2,0,0.4,0.1,0.4,0.3c-0.3,2.6-0.4,4-0.7,6.7c0,1.6,2.5,2.3,3.5,0.9
				c1.7-2.1,2.5-3.1,4.2-5.1c0.1-0.1,0.1-0.1,0.3-0.1c5.4-0.4,8.1-0.6,13.4-1.1c0.3,0,0.4,0.3,0.3,0.4c-3.2,3.9-4.7,5.9-7.9,10
				c-0.9,1.3-0.9,2.8,0.3,3.9c4.3,4,6.4,5.9,10.6,9.4c0.2,0.1,0.1,0.4-0.2,0.4c-4.7,0.5-7.1,0.8-11.9,1.4c-0.1,0-0.2,0-0.3-0.1
				c-3-2.2-4.5-3.4-7.6-5.9c-1.2-0.9-3.3-0.1-3.2,1.3c0.2,2.5,0.3,3.7,0.5,5.9C266.6,219.8,266.5,219.9,266.3,220z"/>
			<path class="st5" d="M288.6,205.4c-0.4-3.7,0.9-7.1,3.7-9.8c2.8-2.7,6.8-4.2,12-4.5c5.9-0.4,10.3,0.6,13.4,3.3
				c2.4,2.1,3.7,4.7,3.8,7.9c0.2,3.6-0.9,6.7-3.5,9.1c-2.6,2.5-6.4,4-11.6,4.4c-4.7,0.4-8.5-0.1-11.5-1.6
				C291.1,212.3,288.9,209.4,288.6,205.4z M299.8,204.3c0.2,2.1,0.9,3.7,2,4.5c1.1,0.9,2.5,1.3,4.1,1.1c1.6-0.1,2.9-0.8,3.8-1.8
				c0.9-1.1,1.3-2.7,1.1-4.9c-0.2-2.1-0.8-3.6-1.9-4.5c-1.1-0.9-2.5-1.3-4-1.2c-1.6,0.1-3,0.8-3.9,1.9
				C300.1,200.5,299.7,202.2,299.8,204.3z"/>
			<path class="st5" d="M336.5,212.4c-3.6,0.4-5.4,0.6-9.2,0.9c-0.1,0-0.3-0.1-0.3-0.2c-0.1-8.7,0.1-17.4,0.2-26.1
				c0-0.1,0.1-0.3,0.3-0.3c3.8-0.1,5.6-0.1,9.3-0.1c0.2,0,0.3,0.1,0.3,0.3c-0.1,2.5-0.3,3.7-0.4,6.1c-0.1,1.4,1.9,2.1,2.9,0.9
				c1.6-1.6,2.4-2.5,4-4c0.1-0.1,0.1-0.1,0.2-0.1c4.6,0,6.9,0,11.6,0.1c0.2,0,0.3,0.2,0.2,0.3c-3.2,3.4-4.7,5.2-7.7,8.8
				c-0.8,0.9-0.8,2.1-0.1,2.9c2.9,3.4,4.3,5,7.2,8.3c0.1,0.1,0,0.4-0.2,0.4c-3.9,0.3-5.9,0.4-9.7,0.8c-0.1,0-0.1,0-0.2-0.1
				c-1.8-2-2.6-3-4.4-5c-0.9-1.1-3.1-0.5-3.3,1c-0.3,1.9-0.4,2.8-0.6,4.7C336.7,212.3,336.6,212.4,336.5,212.4z"/>
			<path class="st5" d="M376.5,210c0-0.6-0.1-0.9-0.1-1.5l0,0c-0.2-0.6-1.1-0.8-1.7-0.4c-0.9,0.6-1.8,1-2.7,1.3
				c-1.8,0.6-3.8,1-6.1,1.1c-3,0.1-5.2-0.3-6.7-1.3c-1.5-1.1-2.2-2.5-2.1-4.1c0.1-1.6,0.7-2.9,1.9-3.9c1.2-1.1,3.3-1.8,6.5-2.4
				c3.8-0.6,6.4-1.1,7.5-1.3c0.4-0.1,0.7-0.1,1.2-0.3l0,0c5.4-0.6,2.1-2.5,2.1-2.5c-0.5-0.4-1.4-0.5-2.7-0.5c-1.7,0-3,0.2-3.9,0.6
				c-0.7,0.3-1.3,0.9-1.8,1.7l0,0c-3.7-0.3-5.5-0.4-9.1-0.6c-0.2,0-0.3-0.1-0.2-0.3c0.4-1.2,1-2.1,1.7-2.8c0.8-0.8,1.8-1.4,3.2-1.9
				c0.9-0.4,2.3-0.6,4-0.8c1.7-0.2,3.5-0.3,5.4-0.3c3.2,0.1,5.7,0.2,7.7,0.4c2,0.3,3.5,0.8,4.7,1.5c0.9,0.5,1.4,1.3,1.8,2.2
				s0.5,1.9,0.3,2.8c-0.6,3.3-0.9,4.9-1.3,8.4c-0.2,1.7-0.3,2.6-0.3,4.3l0,0C382,209.7,380.1,209.7,376.5,210z M371.8,201.3
				c-2.1,0.4-3.4,0.9-4,1.3c-0.6,0.4-0.9,0.9-0.9,1.4c-0.1,0.6,0.2,1.1,0.7,1.4c0.5,0.4,1.3,0.5,2.3,0.5c1.1-0.1,2.1-0.3,3.2-0.8
				c1-0.4,2-0.9,2.2-1.6C376,200.8,371.8,201.3,371.8,201.3z"/>
		</g>
	</g>
	<g>
		<g>
			<path class="st6" d="M172.1,217.4c1.8,12.3,3,25,6.6,36.9c0.1,0.1-0.1,0.3-0.3,0.4c-4.7,1.8-7,2.7-11.8,4.6
				c-0.2,0.1-0.4,0.1-0.4-0.1c-1.6-6.7-2.3-13.6-3.2-20.4c-0.3-2.2-3.1-1.6-3.3,0.8c-0.9,7.9-2,15.8-3.3,23.6c0,0.1-0.2,0.3-0.3,0.3
				c-4.4,1.8-6.6,2.6-10.8,4.4c-0.2,0.1-0.3,0.1-0.4-0.1c-3.5-5.9-5.1-12.9-6.9-19.4c-0.6-2.2-3.3-0.7-3.3,1.8
				c0.2,7.1,0.3,14.3,0.9,21.4c0,0.1-0.1,0.3-0.3,0.4c-4.5,1.9-6.6,2.8-10.7,4.6c-0.2,0.1-0.3,0-0.4-0.1
				c-1.1-17.9-0.4-35.9-0.1-53.8c0-0.3-0.1-3.1,0.1-3.1c11.5-4.9,23-9.6,34.6-14.2c0.6-0.1-10.1,7.6-13.8,10.2
				c-2.1,1.5-3.3,4.9-2.6,7.7c1.6,6.7,2.5,10.3,4.3,17c0.6,2.3,3.6,1.2,4-1.4c1.1-8.1,2.2-16.3,3.2-24.5c0,0-0.1-2.7,4-5
				c39.7-21.9,140.2-30.3,140.2-30.3s-48.4,6.3-71.4,13.9c-16.9,4.3-33.2,10-49.3,16.5C177,209.5,171.8,211.9,172.1,217.4z"/>
			<path class="st6" d="M215.6,239.3c-2.7,1-4.3,1.6-7.9,2.9l0,0v-0.1c-0.4-1.3-2.3-1.4-3.2-0.2c-0.4,0.5-0.8,0.9-1.3,1.4
				c-1.3,1.2-3.1,2.3-5.5,3.2c-3.2,1.2-6.1,1.6-8.6,0.8c-2.5-0.8-4.2-3.1-5-7.3c-1.5-7.3-2.7-14.7-4-22c-0.1-0.2,0.1-0.4,0.3-0.5
				c4.5-1.4,6.8-2.1,11.2-3.3c0.2-0.1,0.4,0.1,0.4,0.3c1.1,6.2,2.3,12.4,3.7,18.5c0.4,2,1.1,3.3,2,3.8c0.9,0.6,2,0.6,3.2,0.1
				c1.3-0.4,2.2-1.3,2.8-2.6c0.6-1.3,0.5-3.3-0.1-6.3c-1.2-6.1-1.8-9.5-3-15.8c-0.1-0.2,0.1-0.4,0.3-0.4c4.2-1.1,6.2-1.6,10.1-2.6
				c0.2-0.1,0.3,0.1,0.3,0.3c1.3,9.9,2.5,19.9,4.6,29.7C215.8,239.1,215.8,239.2,215.6,239.3z"/>
			<path class="st6" d="M219.4,230.2c4.3-1.8,6.6-2.6,10.8-4.2l0,0c0.7,1.1,1.5,1.8,2.5,2c1,0.3,2.3,0.1,3.8-0.3
				c1.7-0.4,2.9-1.1,3.8-1.9c0.6-0.6,0.9-1.2,0.9-1.8c-0.1-0.8-0.6-1.2-1.6-1.4c-0.7-0.1-2.5-0.1-5.5,0.3c-4.4,0.5-7.6,0.8-9.4,0.7
				s-3.4-0.6-4.7-1.8c-1.3-1.1-2.1-2.6-2.3-4.7c-0.2-2.1,0.3-4.2,1.4-6.1c1.1-1.9,2.8-3.4,5-4.7c2.1-1.2,5.1-2.2,8.8-2.8
				c3.9-0.7,6.7-0.9,8.6-0.6s3.5,0.8,4.8,1.8c1.3,0.9,2.3,2.1,3.3,3.7c0.1,0.2,0,0.4-0.3,0.4c-4.3,1.1-6.6,1.8-11,3.1l0,0
				c-0.4-0.9-1-1.5-1.8-1.8c-1-0.4-2.3-0.5-3.7-0.2c-1.4,0.3-2.4,0.8-3,1.4s-0.9,1.3-0.8,2c0.1,0.8,0.6,1.3,1.4,1.4
				c0.9,0.2,2.7,0.1,5.5-0.2c4.2-0.5,7.2-0.5,9.3-0.1c2.1,0.3,3.7,1.1,4.9,2.2c1.2,1.1,1.9,2.4,2.1,3.9c0.2,1.5-0.2,3-1.1,4.5
				c-0.9,1.6-2.5,2.9-4.7,4.2c-2.3,1.3-5.5,2.5-9.7,3.7c-5.9,1.7-10.5,2.6-13.2,2.3C220.5,234.7,220.4,232.7,219.4,230.2
				L219.4,230.2z"/>
			<path class="st6" d="M270.4,224.9c-4.4,0.7-6.7,1.1-11.2,2c-0.2,0.1-0.3-0.1-0.4-0.2c-0.7-9.4-1.1-18.8-1.5-28.2
				c0-0.1-0.1-1.4,0.1-1.4c4.7-0.5,7-0.7,11.7-1.1c0.2,0,0.4,0.1,0.4,0.3c-0.3,2.6-0.4,4-0.7,6.8c0,1.7,2.5,2.3,3.5,0.9
				c1.6-2.1,2.5-3.2,4.2-5.2c0.1-0.1,0.1-0.1,0.3-0.1c5.4-0.4,8-0.6,13.3-1.1c0.3,0,0.4,0.3,0.3,0.4c-3.2,4-4.7,6.1-7.8,10.1
				c-0.9,1.3-0.8,2.9,0.3,4c4.3,4.1,6.4,6,10.6,9.5c0.2,0.1,0.1,0.4-0.2,0.4c-4.7,0.5-7.1,0.8-11.8,1.4c-0.1,0-0.2,0-0.3-0.1
				c-3-2.2-4.5-3.4-7.5-5.9c-1.2-1-3.3-0.1-3.2,1.3c0.2,2.5,0.3,3.7,0.6,5.9C270.7,224.7,270.5,224.9,270.4,224.9z"/>
			<path class="st6" d="M292.3,210.2c-0.4-3.8,0.8-7.2,3.7-10c2.8-2.8,6.8-4.3,11.9-4.7c5.9-0.4,10.3,0.7,13.2,3.3
				c2.4,2.1,3.7,4.9,3.8,8.1c0.2,3.7-0.9,6.8-3.5,9.3c-2.5,2.5-6.3,4-11.5,4.4c-4.6,0.4-8.4-0.1-11.5-1.7
				C294.9,217.2,292.8,214.3,292.3,210.2z M303.6,209.2c0.2,2.2,0.9,3.7,2,4.7c1.1,0.9,2.5,1.3,4,1.1c1.6-0.1,2.8-0.8,3.8-1.9
				c0.9-1.1,1.3-2.8,1.1-5c-0.2-2.1-0.8-3.7-1.9-4.6c-1.1-0.9-2.5-1.4-4-1.3c-1.6,0.1-2.9,0.8-3.9,2
				C303.8,205.3,303.4,207,303.6,209.2z"/>
			<path class="st6" d="M339.9,217.5c-3.6,0.4-5.4,0.6-9.1,0.9c-0.1,0-0.3-0.1-0.3-0.3c-0.1-8.9,0-17.7,0.1-26.6
				c0-0.1,0.1-0.3,0.3-0.3c3.7-0.1,5.6-0.1,9.3-0.1c0.2,0,0.3,0.1,0.3,0.3c-0.1,2.5-0.3,3.7-0.4,6.2c-0.1,1.4,1.8,2.1,2.9,1
				c1.6-1.6,2.4-2.5,4-4.1c0.1-0.1,0.1-0.1,0.2-0.1c4.6,0,6.9,0,11.5,0c0.2,0,0.3,0.2,0.2,0.3c-3.2,3.5-4.7,5.3-7.6,9
				c-0.8,0.9-0.8,2.1-0.1,3c2.9,3.5,4.3,5.1,7.2,8.5c0.1,0.1,0,0.4-0.2,0.4c-3.9,0.3-5.8,0.5-9.6,0.8c-0.1,0-0.1,0-0.2-0.1
				c-1.8-2-2.6-3-4.3-5.1c-0.9-1.1-3-0.5-3.2,1c-0.3,1.9-0.4,2.9-0.6,4.8C340.1,217.4,340,217.5,339.9,217.5z"/>
			<path class="st6" d="M379.6,215c-0.1-0.6-0.1-0.9-0.1-1.6l0,0c-0.2-0.6-1.1-0.8-1.6-0.4c-0.9,0.6-1.8,1.1-2.6,1.4
				c-1.8,0.7-3.8,1.1-6.1,1.1c-3,0.1-5.2-0.3-6.7-1.4c-1.5-1.1-2.2-2.5-2.1-4.2c0.1-1.6,0.7-3,1.8-4c1.2-1.1,3.3-1.9,6.4-2.5
				c3.7-0.7,6.3-1.1,7.4-1.3c0.4-0.1,0.7-0.1,1.1-0.3l0,0c5.4-0.7,2.1-2.6,2.1-2.6c-0.5-0.4-1.4-0.6-2.7-0.6c-1.7,0-3,0.2-3.8,0.6
				c-0.7,0.3-1.3,0.9-1.8,1.8l0,0c-3.7-0.3-5.5-0.4-9-0.6c-0.1,0-0.3-0.1-0.2-0.3c0.4-1.2,1-2.2,1.7-2.9c0.8-0.8,1.8-1.4,3.1-2
				c0.9-0.4,2.3-0.7,3.9-0.9c1.6-0.2,3.5-0.3,5.4-0.3c3.2,0.1,5.7,0.2,7.6,0.4c2,0.3,3.5,0.8,4.7,1.6c0.8,0.6,1.4,1.3,1.8,2.3
				c0.4,1,0.4,1.9,0.3,2.8c-0.6,3.3-0.9,5-1.2,8.7c-0.1,1.8-0.2,2.6-0.3,4.5l0,0C385.1,214.7,383.2,214.8,379.6,215z M374.8,206
				c-2.1,0.4-3.4,0.9-4,1.4c-0.6,0.4-0.9,0.9-0.9,1.4c-0.1,0.6,0.2,1.1,0.7,1.5c0.5,0.4,1.3,0.6,2.3,0.5c1.1-0.1,2.1-0.3,3.2-0.8
				c1-0.4,2-0.9,2.2-1.6C379.1,205.6,374.8,206,374.8,206z"/>
		</g>
	</g>
</g>
</svg>
