<?xml version="1.0" encoding="utf-8"?>
<!-- Generator: Adobe Illustrator 26.0.3, SVG Export Plug-In . SVG Version: 6.00 Build 0)  -->
<svg version="1.1" id="Layer_1" xmlns="http://www.w3.org/2000/svg" xmlns:xlink="http://www.w3.org/1999/xlink" x="0px" y="0px"
	 viewBox="0 0 1366 768" style="enable-background:new 0 0 1366 768;" xml:space="preserve">
<style type="text/css">
	.st0{display:none;fill:none;stroke:#010202;stroke-miterlimit:10;}
	.st1{fill:#2C61AB;}
	.st2{fill:none;stroke:#FFFFFF;stroke-width:0.5;stroke-miterlimit:10;}
	.st3{display:none;}
	.st4{fill:none;stroke:#DADADA;stroke-miterlimit:10;}
	.st5{fill:#BA1C1C;}
	.st6{fill:#FFFFFF;}
</style>
<g id="logo">
	<g>
		<g>
			<g>
				<path class="st0" d="M525.5,480c0,0,52.9-71.2,287.4-94.3"/>
				<path class="st1" d="M506,342.5c0,0,172-71.4,321.9-17.3v59.1c0,0-242.9,9.9-321.9,115.7L506,342.5L506,342.5z"/>
				<g>
				</g>
				<path class="st2" d="M505.7,501.1V342.3l0.2-0.1c0.4-0.2,43.8-18,104.8-29c35.9-6.4,70.7-9.3,103.7-8.5
					c41.2,1,79.4,7.8,113.6,20.2l0.2,0.1v59.7h-0.3c-0.6,0-61.5,2.7-131.3,18.1c-41,9.1-76.9,20.8-106.8,34.8
					c-37.4,17.5-65.5,38.5-83.5,62.6L505.7,501.1z M506.4,342.8V499c18.1-23.8,46-44.7,83.1-62c30-14,66-25.7,107-34.9
					c67.2-14.9,126.1-17.9,131-18.1v-58.5c-34.1-12.3-72.2-19-113.2-20.1c-32.9-0.8-67.7,2.1-103.6,8.4
					C552,324.5,509.7,341.4,506.4,342.8z"/>
				<g class="st3">
				</g>
				<g>
					<g>
						<path class="st4" d="M526,480.4l-1.1-0.9c0.1-0.2,13.8-18.1,56-38.7c70.4-34.2,164.9-49.3,231.8-55.9l0.1,1.4
							c-66.7,6.6-161,21.6-231.2,55.7C539.7,462.5,526.1,480.3,526,480.4z"/>
					</g>
				</g>
			</g>
		</g>
	</g>
	<g>
		<g>
			<path class="st5" d="M577.1,365c1.9,13,3.2,26.6,7.1,39.2c0.1,0.1-0.1,0.3-0.3,0.4c-4.4,1.7-6.6,2.5-11.1,4.3
				c-1.2,0.5-2.4,0.3-2.6-0.5c-1.5-6.7-2.3-13.6-3.1-20.4c-0.3-2.3-3.4-1.6-3.7,0.8c-1.1,8.4-2.1,16.7-3.7,25.1
				c0,0.1-0.2,0.3-0.4,0.3c-4.4,1.8-6.6,2.7-10.9,4.5c-0.8,0.3-1.5,0.3-1.8-0.1c-3.6-6.2-5.3-13.1-7.2-19.9c-0.6-2.3-3.7-0.7-3.6,2
				c0.2,7.5,0.3,15.1,1,22.7c0,0.1-0.1,0.3-0.4,0.5c-4.5,1.9-6.7,2.9-10.8,4.7c-0.7,0.3-1.2,0.1-1.3-0.4c-1-18.8-0.3-37.8-0.1-56.7
				l0,0c0-1.9,1.1-3.8,2.5-4.4c11.8-5,23.7-9.9,35.6-14.6c0.6-0.2-11.2,8.3-15.2,11.2c-2.4,1.6-3.7,5.3-2.9,8.3
				c1.8,7.1,2.7,11,4.7,18.1c0.7,2.5,3.9,1.2,4.3-1.6c1.2-8.7,2.5-17.4,3.6-26.2c0,0-0.3-2.5,4.4-5.4c9.6-6,20-10.4,30.8-13.4
				c32.6-9.1,100.7-19.2,100.7-19.2s-38.1,7.5-56,14.5c-18.5,4.8-36.3,10.9-54,18l0,0C582.5,356.6,576.8,359.3,577.1,365L577.1,365z
				"/>
			<path class="st5" d="M622.8,387.2c-3.2,1.2-4.9,1.8-9,3.3l0,0v-0.1c-0.4-1.4-2.5-1.6-3.6-0.2c-0.4,0.5-0.9,1.1-1.4,1.5
				c-1.4,1.4-3.5,2.5-6.2,3.5c-3.6,1.4-6.8,1.7-9.5,0.8c-2.7-1-4.5-3.4-5.4-8c-1.3-6.6-2.5-13.4-3.6-20.1c-0.3-2.2,0.9-4.5,2.9-5.1
				c3.7-1.1,5.5-1.6,9.1-2.7c0.2-0.1,0.4,0.1,0.4,0.3c1.2,6.6,2.5,13.2,3.9,19.8c0.5,2.2,1.2,3.5,2.1,4.1s2.1,0.6,3.5,0.1
				c1.4-0.5,2.5-1.5,3.2-2.9c0.6-1.4,0.6-3.7,0-6.8c-1.3-6.6-1.9-10.1-3.2-16.9c-0.1-0.2,0.1-0.4,0.3-0.5c4.6-1.2,6.8-1.8,11.2-2.8
				c0.2-0.1,0.3,0.1,0.3,0.3c1.5,10.7,2.9,21.4,5.1,32C623,387,622.9,387.2,622.8,387.2z"/>
			<path class="st5" d="M626.5,377.4c2.7-1.2,7.1-2.9,11.8-4.6l0,0c0.8,1.2,1.6,1.9,2.7,2.2c1.1,0.3,2.5,0.1,4.2-0.3
				c1.8-0.5,3.2-1.2,4.1-2.1c0.7-0.7,1-1.3,1-2c-0.1-0.8-0.7-1.3-1.8-1.5c-0.8-0.1-2.7-0.1-6,0.3c-4.9,0.5-8.3,0.8-10.3,0.8
				c-2-0.1-3.7-0.7-5.1-1.9c-1.4-1.2-2.1-2.9-2.3-5.1c-0.2-2.3,0.1-4.5,1.4-6.4c1.2-2,3.1-3.7,5.5-5s5.6-2.4,9.6-3.1
				c4.2-0.8,7.4-1,9.5-0.8c2.1,0.3,3.8,0.9,5.2,1.8c1.4,0.9,2.5,2.2,3.6,3.9c0.1,0.2,0,0.4-0.3,0.5c-4.8,1.2-7.2,1.9-12.1,3.4l0,0
				c-0.4-1-1.1-1.6-1.9-1.9c-1.1-0.4-2.5-0.5-4-0.2c-1.6,0.3-2.7,0.8-3.3,1.5c-0.7,0.7-1,1.4-0.9,2.1c0.1,0.8,0.6,1.3,1.5,1.5
				c1,0.2,2.9,0.1,6-0.3c4.6-0.5,7.9-0.5,10.2-0.2c2.3,0.3,4,1.2,5.3,2.3c1.3,1.2,2.1,2.6,2.3,4.2c0.2,1.6-0.2,3.3-1.2,4.9
				c-1,1.7-2.7,3.2-5.2,4.7s-6,2.7-10.6,4.1c-6.5,1.9-11.4,2.9-14.5,2.5C627.6,382.4,627.3,380.3,626.5,377.4L626.5,377.4z"/>
			<path class="st5" d="M682.3,371.6c-4.9,0.8-7.3,1.2-12.3,2.2c-0.2,0.1-0.3-0.1-0.4-0.2c-0.7-10.1-1.1-20.2-1.5-30.3
				c0-0.1-0.1-1.5,0.1-1.6c5.1-0.5,7.7-0.8,12.7-1.2c0.2,0,0.4,0.1,0.4,0.3c-0.3,2.8-0.5,4.3-0.8,7.3c0,1.8,2.7,2.5,3.8,1
				c1.8-2.3,2.7-3.4,4.5-5.5c0.1-0.1,0.1-0.1,0.3-0.1c5.9-0.5,8.8-0.7,14.5-1.2c0.3,0,0.5,0.3,0.3,0.4c-3.4,4.2-5.1,6.4-8.6,10.8
				c-1,1.4-1,3.1,0.3,4.2c4.7,4.4,7,6.4,11.5,10.2c0.2,0.1,0.1,0.4-0.2,0.4c-5.1,0.5-7.7,0.8-12.9,1.5c-0.1,0-0.2,0-0.3-0.1
				c-3.3-2.4-4.9-3.7-8.2-6.4c-1.3-1-3.6-0.1-3.5,1.4c0.2,2.7,0.3,4,0.5,6.4C682.6,371.3,682.5,371.5,682.3,371.6z"/>
			<path class="st5" d="M706.5,355.7c-0.4-4,1-7.7,4-10.6c3.1-2.9,7.4-4.5,13-4.9c6.4-0.5,11.2,0.7,14.5,3.6c2.6,2.3,4,5.1,4.2,8.6
				c0.2,3.9-1,7.3-3.8,9.9c-2.8,2.7-6.9,4.3-12.6,4.8c-5.1,0.5-9.2-0.1-12.5-1.8C709.2,363.2,706.9,360,706.5,355.7z M718.7,354.5
				c0.2,2.3,1,4,2.2,4.9c1.2,1,2.7,1.4,4.5,1.2c1.7-0.1,3.2-0.8,4.1-2c1-1.2,1.4-2.9,1.2-5.3c-0.2-2.3-0.9-3.9-2.1-4.9
				c-1.2-1-2.7-1.4-4.4-1.3c-1.8,0.1-3.2,0.8-4.2,2.1S718.5,352.2,718.7,354.5z"/>
			<path class="st5" d="M758.5,363.3c-3.9,0.4-5.9,0.6-10,1c-0.1,0-0.3-0.1-0.3-0.2c-0.1-9.5,0.1-18.9,0.2-28.4
				c0-0.1,0.1-0.3,0.3-0.3c4.1-0.1,6.1-0.1,10.1-0.1c0.2,0,0.3,0.1,0.3,0.3c-0.1,2.7-0.3,4-0.4,6.6c-0.1,1.5,2.1,2.3,3.2,1
				c1.7-1.8,2.6-2.7,4.4-4.3c0.1-0.1,0.1-0.1,0.2-0.1c5,0,7.5,0,12.6,0.1c0.2,0,0.3,0.2,0.2,0.3c-3.5,3.7-5.1,5.6-8.4,9.6
				c-0.8,1-0.8,2.3-0.1,3.2c3.2,3.7,4.7,5.5,7.9,9c0.1,0.1,0,0.4-0.2,0.4c-4.2,0.3-6.4,0.5-10.5,0.9c-0.1,0-0.1,0-0.2-0.1
				c-1.9-2.1-2.9-3.2-4.8-5.4c-1-1.2-3.4-0.5-3.6,1.1c-0.3,2.1-0.4,3.1-0.6,5.1C758.7,363.2,758.7,363.3,758.5,363.3z"/>
			<path class="st5" d="M802,360.7c0-0.7-0.1-1-0.1-1.6l0,0c-0.2-0.6-1.2-0.8-1.8-0.4c-1,0.6-2,1.1-2.9,1.4
				c-1.9,0.7-4.2,1.1-6.6,1.2c-3.3,0.1-5.7-0.3-7.3-1.4s-2.4-2.7-2.3-4.5c0.1-1.7,0.8-3.2,2.1-4.2c1.3-1.2,3.6-2,7.1-2.6
				c4.1-0.7,6.9-1.2,8.1-1.4c0.5-0.1,0.8-0.1,1.3-0.3l0,0c5.9-0.7,2.3-2.7,2.3-2.7c-0.5-0.4-1.5-0.5-2.9-0.5c-1.8,0-3.3,0.2-4.2,0.6
				c-0.8,0.3-1.4,1-1.9,1.8l0,0c-4-0.3-6-0.4-9.9-0.7c-0.2,0-0.3-0.1-0.2-0.3c0.5-1.3,1.1-2.3,1.8-3.1c0.8-0.8,1.9-1.5,3.4-2.1
				c1-0.4,2.5-0.7,4.3-0.9c1.8-0.2,3.8-0.3,5.9-0.3c3.4,0.1,6.2,0.2,8.4,0.5c2.1,0.3,3.8,0.8,5.1,1.6c1,0.5,1.6,1.4,2,2.4
				c0.4,1,0.5,2.1,0.3,3c-0.6,3.6-1,5.3-1.4,9.2c-0.2,1.8-0.3,2.8-0.3,4.7l0,0C808,360.3,806,360.4,802,360.7z M796.9,351.2
				c-2.3,0.5-3.7,1-4.3,1.4c-0.6,0.5-1,1-1,1.6c-0.1,0.7,0.2,1.2,0.8,1.6c0.5,0.4,1.4,0.5,2.5,0.5c1.2-0.1,2.3-0.3,3.4-0.8
				c1.1-0.5,2.2-1,2.4-1.7C801.5,350.7,796.9,351.2,796.9,351.2z"/>
		</g>
	</g>
	<g>
		<g>
			<path class="st6" d="M579.9,368.7c1.9,13.4,3.2,27.2,7.1,40.1c0.1,0.1-0.1,0.3-0.3,0.4c-5.1,2-7.6,2.9-12.9,5
				c-0.2,0.1-0.5,0.1-0.5-0.1c-1.7-7.3-2.5-14.7-3.4-22.2c-0.3-2.4-3.4-1.7-3.6,0.8c-1,8.6-2.1,17.1-3.6,25.7c0,0.1-0.2,0.3-0.3,0.3
				c-4.8,1.9-7.1,2.9-11.8,4.8c-0.2,0.1-0.3,0.1-0.4-0.1c-3.8-6.4-5.5-14-7.5-21.1c-0.6-2.4-3.6-0.8-3.6,1.9
				c0.2,7.7,0.3,15.5,1,23.3c0,0.1-0.1,0.3-0.3,0.5c-4.9,2.1-7.2,3.1-11.6,5c-0.2,0.1-0.3,0-0.4-0.1c-1.2-19.5-0.4-39-0.1-58.5
				c0-0.3-0.1-3.4,0.1-3.4c12.5-5.3,25-10.5,37.6-15.4c0.6-0.1-11,8.2-15,11.1c-2.3,1.6-3.6,5.3-2.9,8.4c1.8,7.3,2.7,11.2,4.7,18.5
				c0.7,2.5,3.9,1.3,4.3-1.6c1.2-8.8,2.4-17.7,3.5-26.6c0,0-0.1-2.9,4.3-5.4c43.1-23.8,152.4-32.9,152.4-32.9s-52.6,6.8-77.6,15.1
				c-18.4,4.7-36,10.8-53.6,17.9C585.2,360.1,579.6,362.8,579.9,368.7z"/>
			<path class="st6" d="M627.2,392.5c-2.9,1.1-4.7,1.7-8.6,3.2l0,0v-0.1c-0.4-1.4-2.5-1.5-3.5-0.2c-0.4,0.5-0.9,1-1.4,1.5
				c-1.4,1.3-3.4,2.5-6,3.4c-3.5,1.3-6.6,1.7-9.3,0.8s-4.5-3.4-5.4-7.9c-1.6-7.9-2.9-16-4.3-23.9c-0.1-0.2,0.1-0.5,0.3-0.5
				c4.9-1.5,7.4-2.3,12.1-3.6c0.2-0.1,0.4,0.1,0.4,0.3c1.2,6.7,2.5,13.4,4,20.1c0.5,2.2,1.2,3.6,2.2,4.1c1,0.6,2.1,0.6,3.4,0.1
				c1.4-0.5,2.4-1.4,3-2.9c0.6-1.4,0.5-3.6-0.1-6.8c-1.3-6.6-2-10.3-3.2-17.2c-0.1-0.2,0.1-0.4,0.3-0.5c4.5-1.2,6.7-1.8,11-2.8
				c0.2-0.1,0.3,0.1,0.3,0.3c1.4,10.8,2.7,21.6,5,32.3C627.4,392.3,627.4,392.4,627.2,392.5z"/>
			<path class="st6" d="M631.3,382.6c4.7-2,7.1-2.9,11.7-4.6l0,0c0.8,1.2,1.6,1.9,2.7,2.2c1.1,0.3,2.5,0.1,4.1-0.3
				c1.8-0.5,3.2-1.2,4.1-2.1c0.7-0.6,1-1.3,1-2c-0.1-0.8-0.7-1.3-1.8-1.5c-0.8-0.1-2.7-0.1-6,0.3c-4.8,0.5-8.2,0.8-10.2,0.8
				c-2-0.1-3.7-0.7-5.1-1.9s-2.3-2.9-2.5-5.1c-0.2-2.3,0.3-4.6,1.6-6.6c1.2-2.1,3.1-3.7,5.4-5.1c2.3-1.3,5.5-2.4,9.5-3.1
				c4.2-0.8,7.3-1,9.4-0.7c2.1,0.3,3.8,0.9,5.2,1.9c1.4,1,2.5,2.3,3.6,4c0.1,0.2,0,0.4-0.3,0.5c-4.7,1.2-7.1,1.9-12,3.4l0,0
				c-0.4-1-1.1-1.6-1.9-2c-1.1-0.5-2.5-0.5-4-0.2c-1.5,0.3-2.6,0.8-3.3,1.5c-0.7,0.7-1,1.4-0.9,2.1c0.1,0.8,0.6,1.4,1.5,1.6
				c1,0.2,2.9,0.1,6-0.2c4.5-0.5,7.9-0.5,10.1-0.1c2.3,0.3,4,1.2,5.3,2.4s2.1,2.6,2.3,4.2s-0.2,3.3-1.2,4.9c-1,1.7-2.7,3.2-5.1,4.6
				c-2.5,1.4-6,2.7-10.5,4c-6.4,1.8-11.4,2.9-14.4,2.5C632.5,387.6,632.4,385.3,631.3,382.6L631.3,382.6z"/>
			<path class="st6" d="M686.7,376.8c-4.8,0.8-7.3,1.2-12.2,2.2c-0.2,0.1-0.3-0.1-0.4-0.2c-0.8-10.2-1.2-20.4-1.6-30.7
				c0-0.1-0.1-1.6,0.1-1.6c5.1-0.5,7.6-0.8,12.7-1.2c0.2,0,0.4,0.1,0.4,0.3c-0.3,2.9-0.5,4.4-0.8,7.4c0,1.8,2.7,2.5,3.8,1
				c1.8-2.3,2.7-3.4,4.5-5.6c0.1-0.1,0.1-0.1,0.3-0.1c5.8-0.5,8.7-0.7,14.5-1.2c0.3,0,0.5,0.3,0.3,0.5c-3.4,4.3-5.1,6.6-8.5,11
				c-1,1.4-0.9,3.2,0.3,4.3c4.7,4.5,6.9,6.5,11.5,10.3c0.2,0.1,0.1,0.4-0.2,0.4c-5.1,0.5-7.7,0.8-12.9,1.5c-0.1,0-0.2,0-0.3-0.1
				c-3.2-2.4-4.9-3.7-8.1-6.4c-1.3-1.1-3.6-0.1-3.5,1.4c0.2,2.7,0.3,4,0.6,6.4C687,376.7,686.9,376.8,686.7,376.8z"/>
			<path class="st6" d="M710.6,360.9c-0.4-4.1,0.9-7.8,4-10.8c3-3,7.4-4.7,12.9-5.1c6.4-0.5,11.2,0.8,14.4,3.6
				c2.6,2.3,4,5.3,4.2,8.8c0.2,4-1,7.4-3.8,10.1c-2.7,2.7-6.8,4.3-12.5,4.8c-5,0.4-9.2-0.1-12.5-1.8
				C713.3,368.5,711.1,365.4,710.6,360.9z M722.8,359.8c0.2,2.4,1,4,2.2,5.1c1.2,1,2.7,1.4,4.4,1.2c1.7-0.1,3.1-0.8,4.1-2.1
				c1-1.2,1.4-3,1.2-5.5c-0.2-2.3-0.9-4-2.1-5c-1.2-1-2.7-1.5-4.3-1.4c-1.8,0.1-3.2,0.9-4.2,2.1C723,355.6,722.6,357.4,722.8,359.8z
				"/>
			<path class="st6" d="M762.2,368.8c-3.9,0.4-5.9,0.6-9.9,1c-0.1,0-0.3-0.1-0.3-0.3c-0.1-9.7,0-19.2,0.1-28.9
				c0-0.1,0.1-0.3,0.3-0.3c4-0.1,6.1-0.1,10.1-0.1c0.2,0,0.3,0.1,0.3,0.3c-0.1,2.7-0.3,4-0.4,6.8c-0.1,1.6,2,2.3,3.2,1.1
				c1.7-1.8,2.6-2.7,4.3-4.5c0.1-0.1,0.1-0.1,0.2-0.1c5,0,7.5,0,12.5,0c0.2,0,0.3,0.2,0.2,0.3c-3.4,3.8-5.1,5.8-8.3,9.8
				c-0.8,1-0.8,2.3-0.1,3.2c3.2,3.8,4.7,5.5,7.9,9.2c0.1,0.1,0,0.4-0.2,0.4c-4.2,0.3-6.3,0.5-10.5,0.9c-0.1,0-0.1,0-0.2-0.1
				c-1.9-2.2-2.9-3.3-4.7-5.5c-1-1.2-3.3-0.5-3.5,1.1c-0.3,2.1-0.4,3.2-0.6,5.2C762.4,368.7,762.4,368.8,762.2,368.8z"/>
			<path class="st6" d="M805.4,366.1c-0.1-0.7-0.1-1-0.1-1.7l0,0c-0.2-0.6-1.2-0.8-1.8-0.4c-1,0.6-1.9,1.2-2.9,1.5
				c-1.9,0.8-4.1,1.2-6.6,1.2c-3.2,0.1-5.6-0.3-7.3-1.5s-2.4-2.7-2.3-4.6c0.1-1.8,0.8-3.2,2-4.4c1.3-1.2,3.6-2.1,7-2.7
				c4-0.8,6.8-1.2,8.1-1.4c0.5-0.1,0.8-0.1,1.2-0.3l0,0c5.9-0.8,2.3-2.8,2.3-2.8c-0.5-0.4-1.5-0.6-2.9-0.6c-1.8,0-3.2,0.2-4.2,0.7
				c-0.8,0.3-1.4,1-1.9,1.9l0,0c-4-0.3-6-0.4-9.8-0.7c-0.1,0-0.3-0.1-0.2-0.3c0.5-1.3,1.1-2.4,1.8-3.2c0.8-0.8,1.9-1.5,3.4-2.1
				c1-0.4,2.5-0.8,4.2-1c1.8-0.2,3.8-0.3,5.9-0.3c3.4,0.1,6.2,0.2,8.3,0.5c2.1,0.3,3.8,0.8,5.1,1.7c0.9,0.6,1.6,1.4,2,2.5
				c0.4,1.1,0.5,2.1,0.3,3.1c-0.7,3.6-1,5.5-1.3,9.5c-0.1,1.9-0.2,2.9-0.3,4.9l0,0C811.3,365.8,809.3,365.9,805.4,366.1z
				 M800.2,356.3c-2.3,0.5-3.7,1-4.3,1.5s-1,1-1,1.6c-0.1,0.7,0.2,1.2,0.8,1.6c0.5,0.4,1.4,0.6,2.5,0.5c1.2-0.1,2.3-0.3,3.4-0.8
				s2.2-1,2.4-1.8C804.8,355.9,800.2,356.3,800.2,356.3z"/>
		</g>
	</g>
</g>
</svg>
