<?xml version="1.0" encoding="utf-8"?>
<!-- Generator: Adobe Illustrator 26.0.3, SVG Export Plug-In . SVG Version: 6.00 Build 0)  -->
<svg version="1.1" id="Layer_1" xmlns="http://www.w3.org/2000/svg" xmlns:xlink="http://www.w3.org/1999/xlink" x="0px" y="0px"
	 viewBox="0 0 1366 768" style="enable-background:new 0 0 1366 768;" xml:space="preserve">
<style type="text/css">
	.st0{opacity:0.66;}
	.st1{fill:#FF0000;}
	.st2{fill:#FCFCFC;}
	.st3{fill:#919191;}
	.st4{fill:#FFFFFF;}
</style>
<g id="homepage-youtube.psd_00000019653446388576329120000002544301223800781230_">
	<defs>
		<rect id="SVGID_1_" x="287" y="109" width="771.9" height="514.6"/>
	</defs>
	<clipPath id="SVGID_00000098201839801617860600000002176135410701694874_">
		<use xlink:href="#SVGID_1_"  style="overflow:visible;"/>
	</clipPath>
	<g style="clip-path:url(#SVGID_00000098201839801617860600000002176135410701694874_);">
		
			<image style="overflow:visible;" width="5676" height="3784" id="Fondo__x2B__Edition_00000020373045888288247100000013488826784237184411_" xlink:href="9565E086AA87DD53.jpg"  transform="matrix(0.136 0 0 0.136 287 109)">
		</image>
	</g>
</g>
<rect x="286" y="109" class="st0" width="772" height="515"/>
<circle class="st1" cx="672" cy="350" r="49"/>
<polygon class="st2" points="658.2,327 658.2,374.9 697.7,351 "/>
<path class="st3" d="M1026,589H318c-2.8,0-5-2.2-5-5l0,0c0-2.8,2.2-5,5-5h708c2.8,0,5,2.2,5,5l0,0C1031,586.8,1028.8,589,1026,589z"
	/>
<path class="st1" d="M624.7,589H316.3c-1.8,0-3.3-1.5-3.3-3.3v-3.4c0-1.8,1.5-3.3,3.3-3.3h308.4c1.8,0,3.3,1.5,3.3,3.3v3.4
	C628,587.5,626.5,589,624.7,589z"/>
<circle class="st4" cx="624.3" cy="584.2" r="7.7"/>
</svg>
